<?xml version="1.0" encoding="UTF-8"?>
<svg id="Camada_2" data-name="Camada 2" xmlns="http://www.w3.org/2000/svg" viewBox="0 0 1000 1000">
  <defs>
    <style>
      .cls-1 {
        fill: #e6216a;
      }

      .cls-2 {
        fill: #f9b40d;
      }

      .cls-3 {
        fill: #2c1b45;
      }

      .cls-4 {
        fill: #2d1b45;
      }

      .cls-5 {
        fill: #eaeaea;
      }
    </style>
  </defs>
  <g id="Fundo">
    <rect class="cls-4" width="1000" height="1000" rx="300" ry="300"/>
  </g>
  <g id="JG">
    <g>
      <g>
        <path class="cls-3" d="M949.72,512.76l-1.71-32.62-.29-2.06c-.95-6.77-3.2-13.05-6.5-18.59,1.24-7.11,1.39-15.25.09-24.52l-.79-5.62c-9.04-64.1-75.58-116.24-148.34-116.24-7.15,0-14.34.5-21.39,1.49-32.56,4.59-61.66,18.34-85.63,38.25-.84-24.92-19.16-46.16-44.28-50.15l-2-.31-66.57-4.79-3.83-.13c-27.99,0-50.76,22.18-51.85,50.71-1.25,37.37-4.23,106.17-6.03,146.99-7.26-3.61-15.3-5.51-23.64-5.51-1.52,0-2.96.31-4.44.43l8.9-102.26c3.82-43.89-28.78-82.72-72.68-86.53l-260.25-22.66c-2.34-.2-4.67-.3-6.98-.3-41.74,0-75.94,31.37-79.56,72.98l-21.64,248.49c-3.82,43.89,28.78,82.71,72.68,86.54l232.09,20.21c16.84,5.12,33.45,8.85,50.59,11.37,16.91,2.49,34.16,3.76,51.28,3.76h0c9.91,0,19.94-.42,29.83-1.26l147.75-12.52-51.21-30.17c3.66-1.24,7.23-2.64,10.72-4.19,13.98,13.42,32.76,21.25,52.4,21.25h0c16.27,0,31.79-5.11,44.9-14.78,6.33-4.67,11.72-10.15,16.14-16.19,23.87,13.24,51.46,20.57,81.77,20.57,9.44,0,19.2-.7,28.99-2.08,82.13-11.58,136.2-81.34,131.49-169.55Z"/>
        <g>
          <path class="cls-2" d="M633.49,349.37l-64.55-4.64h-.29c-2.59-.11-4.69,2.27-4.8,5.04-1.87,55.95-7.51,180.03-7.51,180.03-.01.31-.02.61-.05,1.23-.91,23.67-12.88,35.52-26.95,34.97-7.95-.31-16.71-4.62-24.51-12.78-4.26-4.94-8.91-9.71-13.55-14.47-3.68-3.77-10.09-1.41-10.44,3.85l-3.24,48.45c-.32,4.77-.63,9.61.33,14.29.33,1.62.91,3.19,1.6,4.7.17.85.49,1.68,1.12,2.4.16.16.34.3.5.46,1.15,1.66,2.51,3.15,4.23,4.22.19.12.41.18.6.29,14.75,12.7,33.13,19.29,51.53,20,38.78,1.49,77.71-23.17,81.58-71.35l19.07-211.29c.11-2.77-2.11-5-4.68-5.41Z"/>
          <path class="cls-5" d="M455.67,655.78c-24.81-24.81-28.74-55.28-28.68-72.56l17.37-199.48c1.56-17.97-11.74-33.81-29.71-35.38l-260.26-22.66c-17.97-1.57-33.81,11.74-35.38,29.71l-21.64,248.49c-1.56,17.98,11.74,33.81,29.71,35.38l237.17,20.65c13.79,4.41,29.88,8.54,48.29,11.25,27.39,4.03,51.4,3.75,70.24,2.15,0,0-23.23-13.68-27.11-17.56Z"/>
          <circle class="cls-3" cx="272.21" cy="490.05" r="28.43"/>
          <circle class="cls-3" cx="176.52" cy="560.63" r="28.43"/>
          <circle class="cls-3" cx="367.89" cy="419.47" r="28.43"/>
          <circle class="cls-1" cx="646.4" cy="619.11" r="28.43"/>
        </g>
        <polygon class="cls-3" points="438.45 303.54 552.13 303.54 552.13 441.76 552.13 507.99 483.45 507.99 456.83 492.16 438.45 303.54"/>
        <polygon class="cls-3" points="632.86 708.03 665.3 684.22 605.43 661.42 565.99 662.96 560.76 674.43 570.31 684.72 605.43 696.23 632.86 708.03"/>
        <polygon class="cls-3" points="643.32 308.35 778.14 313.77 736.98 344.71 674.84 369.75 643.32 308.35"/>
        <polygon class="cls-3" points="615.44 704.39 821.9 681.75 713.41 652.64 655.65 670.2 615.44 704.39"/>
      </g>
      <path class="cls-2" d="M802.75,466.28c-.95,1.12-5.66-4.04-13.39-3.64-6.66.35-10.26,4.55-11.06,3.64-1.14-1.29,3.96-12.21,12.23-12.23,8.25-.02,13.43,10.81,12.23,12.23Z"/>
      <path class="cls-2" d="M819.62,491.91l-.34-5.5s12.51-1.58,14.27-1.82c21.75-2.94,43.92-6.68,62.24-10.08,1.7-.03,3.55.6,3.9,2.24l.07.33,3.72,29.96c7.72,61.23-22.7,113.59-81.82,126.33-80.03,17.24-136.17-29.11-152.57-105.23-16.47-76.44,30.15-150.4,98.75-165.19,55.53-11.96,111.96,23.05,121.18,65.84.28,1.31.7,3.27,1.2,5.55,1.27,5.88,2.3,13.86-2.6,14.92-17.99,8.19-35.98,16.39-53.98,24.58-.35-5.02-2.48-28.23-20.6-41.75-7-5.22-13.83-7.1-15.76-7.59-16.61-4.22-30.48,2.72-34.15,4.74-16.14,8.85-21.78,24.64-25.2,34.16-5.57,15.5-4.72,28.59-4.06,38.85.69,10.65,1.55,24.08,9.55,38.86,3.98,7.36,10.4,19.25,24.55,26.59,4.6,2.39,21.8,10.41,39.93,3.34,17.93-6.99,30-26.1,30.24-48.05-1.47,1.62-11.81,12.71-27.61,11.93-10.39-.51-17.69-5.89-20.76-8.54-6.17-5.33-8.73-11.42-10.52-15.72-3.67-8.8-3.91-16.65-3.73-21,9.36,5.53,17.6,7.81,23.01,8.86,4.21.82,18.27-1.46,21.09-6.63Z"/>
      <ellipse class="cls-3" cx="789.98" cy="498.07" rx="64.9" ry="75" transform="translate(-82.08 163.93) rotate(-11.27)"/>
      <path class="cls-2" d="M898.81,472.96l-120.67,23.71s10.07,67.35,76.87,33.69c56.23-28.33,43.8-57.4,43.8-57.4Z"/>
      <circle class="cls-2" cx="784.34" cy="460.24" r="11.2"/>
    </g>
  </g>
</svg>