<?xml version="1.0" encoding="UTF-8"?>
<svg xmlns="http://www.w3.org/2000/svg" viewBox="0 0 444.62 178.27">
  <defs>
    <style>
      .cls-1 {
        fill: #fab510;
      }

      .cls-2 {
        fill: #e7236b;
      }

      .cls-3, .cls-4 {
        fill: #2d1b45;
      }

      .cls-5 {
        fill: #fff;
        mix-blend-mode: luminosity;
        opacity: .6;
      }

      .cls-6 {
        fill: #51baa9;
      }

      .cls-7 {
        isolation: isolate;
      }

      .cls-8 {
        fill: #ebebeb;
      }

      .cls-4 {
        mix-blend-mode: multiply;
        opacity: .14;
      }
    </style>
  </defs>
  <g class="cls-7">
    <g id="Camada_2" data-name="Camada 2">
      <g id="Plano_1" data-name="Plano 1">
        <g>
          <path class="cls-3" d="M5.58,134.79c.59,4.91,1.19,9.83,1.78,14.74,3.71,2.38,9.4,5.69,16.8,8.56,11.44,4.44,21,5.54,26.07,6.05,26.31,2.62,54,1.4,83.71.77,7.27-.15,17.34-.28,37.46-.52,23.11-.28,40.79-.42,46.34-.46,52.93-.42,64.5.3,82.91-.37,24-.88,58.33,1.09,102.22-5.93,1.15,1.84,2.35,3.31,3.82,4.84,0,0,2.57,2.89,5.4,5.27,3.85,3.23,14.95,8.12,30.5,10.55-2.37-2.99-11.34-14.99-10.22-32.04.79-12.11,6.27-20.64,8.87-24.18"/>
          <path class="cls-3" d="M441.4,49.12c-.64-20.59-12.43-33.34-30.91-33.34-4.28,0-8.35.89-12.12,2.65l.19-5.41v-.44c0-6.94-5.67-12.58-12.68-12.58l-14.29.23c-6.42.07-11.81,5-12.53,11.46l-.18,5.73c-4.64.27-9.12,1.62-13.12,3.94-2.36-3.11-6.04-4.98-10-4.98l-11.5.64-3.85.2c-2.9.1-5.65,1.18-7.83,3.08-.63-.14-1.26-.22-1.88-.25l-15.48-1.2-.94-.03c-.36,0-.73.02-1.1.05l.26-4.82v-.26c0-3.33-1.29-6.46-3.62-8.83-2.34-2.37-5.43-3.67-8.69-3.67h0l-15.44-.15c-6.8,0-12.4,5.53-12.5,12.31l-.1,4.72c-1.41.56-2.71,1.38-3.83,2.42-4.05-2.03-8.87-3.06-14.36-3.06-1.56,0-3.1.09-4.59.28-1.48-.87-3.11-1.42-4.84-1.63l-16.52-.32c-3.8,0-7.37,1.75-9.72,4.68-4.81-3.16-10.56-4.75-17.13-4.75-4.76,0-9.27,1.11-13.41,3.3-1.85-1.28-3.99-2.06-6.26-2.27l-14.41-.42h-.36c-3.83,0-7.47,1.62-10.06,4.42-2.12-1.57-4.65-2.52-7.27-2.73l-15.62-.26c-1.8-.95-3.8-1.44-5.83-1.44l-11.5.64-3.85.2c-2.91.1-5.65,1.18-7.83,3.08-.63-.14-1.26-.22-1.88-.25l-14.16-1.1.16-3.17c.25-6.56-4.48-12.28-11.01-13.32l-20.14-1.48h-.6c-6.9-.01-12.52,5.49-12.79,12.52-.46,13.92-1.72,76.75-2.08,95.2-2.44-2.24-5.58-3.46-8.91-3.46-6.94,0-12.74,5.42-13.2,12.34l-.94,14.13c-.12,1.83-.29,4.35.31,7.25.21,1.01.51,1.99.87,2.89.54,1.62,1.37,3.09,2.47,4.36l.07.08c1.03,1.29,2.21,2.39,3.51,3.25,5.94,4.79,13.46,7.59,21.21,7.89.47.02.94.03,1.41.03,9.05,0,18-3.6,24.32-9.7,2.54,2.39,5.77,3.84,9.29,4.15l29.03,2.53c2.22.65,4.41,1.13,6.68,1.46,3.81.56,7.74.68,11.58.36l20.91-1.77c3.09.65,6.32.99,9.6.99,9.99,0,18.98-3.86,25.54-10.92,6.33,6.83,15.59,10.85,25.21,10.85s17.56-3.68,23.23-10.45c1.98,5.28,7.04,8.88,12.64,9l14.78.54h.25c5.64,0,10.97-3.65,12.96-8.85l.81-2.07c6.18,7.56,15.96,11.83,27.36,11.83,5.8,0,11.42-1.65,16.35-4.78,2.34,2.28,5.45,3.57,8.75,3.57l13.17-.3c4.24-.06,8.07-2.26,10.34-5.66,2.27,3.26,6.01,5.36,10.09,5.43l14.43.38c2.15,0,4.24-.55,6.09-1.6,1.67.99,3.54,1.56,5.47,1.66l15.44,1.08h.54c3.98,0,7.64-1.85,9.96-4.93,5.44,3.34,11.86,5.17,18.26,5.17,18.35,0,31.17-14.03,31.17-34.12,0-8-1.92-15.17-5.59-20.94l3.75-.04,1.69-28.97h-4.48c2.46-3.57,4.14-7.56,4.84-11.51l.15-.83.03-1.46c0-3.15-1.14-6.1-3.21-8.37Z"/>
          <g>
            <path class="cls-2" d="M75.09,97.4c-2.01-.17-3.52-.91-4.54-2.2s-1.43-3.05-1.24-5.28l.1-1.19c.21-2.36.88-4.13,2.02-5.32,1.14-1.19,2.67-1.7,4.6-1.53,1.88.16,3.24.89,4.08,2.17.84,1.28,1.17,3.1.99,5.45l-.17,1.91-7.77-.68c-.04,1.11.13,1.95.52,2.5.39.55,1.03.87,1.93.94,1.31.11,2.44-.24,3.39-1.05l1.33,2.49c-.54.62-1.28,1.1-2.22,1.43s-1.95.45-3.02.36ZM73.44,88.02l3.91.34.03-.36c.06-.89-.03-1.58-.26-2.07s-.69-.76-1.38-.81-1.2.14-1.55.6-.6,1.23-.75,2.3Z"/>
            <path class="cls-2" d="M87.58,83.17v1.39c.96-1.03,2.16-1.48,3.6-1.35s2.49.89,2.98,2.29c.97-1.27,2.25-1.83,3.83-1.7,2.61.23,3.79,2.15,3.54,5.77l-.85,9.78-3.91-.34.83-9.54c.08-.86,0-1.49-.2-1.88s-.6-.61-1.17-.66c-.73-.06-1.31.34-1.74,1.2v.47s-.9,10.13-.9,10.13l-3.91-.34.83-9.51c.07-.86.01-1.48-.18-1.89-.2-.4-.59-.63-1.18-.68-.67-.06-1.24.26-1.7.95l-.94,10.85-3.91-.34,1.3-14.93,3.66.32Z"/>
          </g>
          <g>
            <path class="cls-6" d="M108.64,73.89c-.08.68-.61,1.29-1.29,1.29h-.08l-13.35-.46c-.68,0-1.29-.61-1.29-1.29v-1.82c-1.97.99-4.32,1.67-6.9,1.67-15.48,0-20.41-10.85-20.41-27.84,0-6.6.83-11.61,1.29-13.88.08-.38.46-.61.83-.61h.08l15.63,1.21c.38,0,.76.23.76.68v.15c-.53,2.96-1.52,12.06-1.52,17.53,0,7.74,1.97,10.55,5.16,10.55s5.08-2.05,5.16-7.36v-22.99c.08-.76.61-1.37,1.29-1.37l14.87-.76s0-.08.08-.08c.61,0,1.14.53,1.14,1.21l-1.44,44.15Z"/>
            <path class="cls-6" d="M162.73,30.87l-16.01,41.04c-.3.83-1.29,1.52-2.28,1.52h-.08l-14.64-.53c-.99,0-1.97-.76-2.28-1.67l-14.26-39.3c-.08-.23-.08-.46-.08-.61,0-.76.61-1.37,1.44-1.37l14.95.23c.99.08,1.97.83,2.28,1.74l6.37,21.85,7.36-23.59c.3-.99,1.29-1.67,2.2-1.67h.08l13.66.38c.83.08,1.37.61,1.37,1.37,0,.23,0,.46-.08.61Z"/>
            <path class="cls-6" d="M204.84,58.49c-1.21,6.9-8.27,15.86-19.27,15.86-13.2,0-23.06-7.66-23.06-21.85s8.04-24.58,19.65-24.58c14.49,0,19.5,11.3,19.5,23.67,0,2.35-1.21,2.88-2.43,2.88,0,.08-1.29.23-21.62.68.91,4.86,4.1,6.52,7.06,6.52,2.66,0,5.08-1.37,5.54-3.03.15-.68.68-1.06,1.67-1.06,7.97-.15,11.68-.38,11.84-.38h-.08.08c.76,0,1.14.38,1.14.99v.3ZM182.53,42.1c-2.35,0-4.17,1.44-4.78,4.93,3.19-.15,7.59-.38,7.89-.38.23,0,.3-.08.3-.38,0-2.2-1.06-4.17-3.41-4.17Z"/>
            <path class="cls-6" d="M252.86,73.36c-.08.46-.46.76-.99.76h-.08l-15.25-1.06c-.38,0-.61-.3-.61-.61v-.08c.38-2.58.46-6.07.46-12.06,0-13.73-.53-18.74-5.54-18.74-3.87,0-5.61,2.5-5.54,8.8l.08,21.47c0,.61-.46,1.14-1.06,1.14l-14.19-.38c-.61,0-1.14-.53-1.14-1.14l-1.06-42.33v-.08c0-.61.46-1.06,1.06-1.06l15.1.23c.61.08,1.06.53,1.14,1.21v2.35c2.58-1.29,5.77-2.12,9.71-2.12,11.23,0,18.44,5.16,18.44,27.01,0,9.26-.23,14.57-.53,16.69Z"/>
            <path class="cls-6" d="M288.13,43.24c0,.61-.46,1.06-.99,1.06l-5.46-.08c-.61,0-1.14.46-1.14,1.06l-1.59,27.69c-.08.61-.53.99-1.06.99h-.08l-13.28-.83c-.53,0-.99-.53-.99-1.06v-.08l.61-26.86v-.08c0-.53-.53-.99-1.06-1.06h-4.55c-.61,0-1.06-.53-1.14-1.06l-.68-12.44v-.08c0-.53.46-.99.99-.99l5.61.08c.61,0,1.06-.46,1.06-1.06l.3-14.11c0-.61.46-1.06,1.06-1.06l15.32.15c.53,0,.99.46.99,1.06l-.76,14.19v.08c0,.61.46,1.06.99,1.06l4.7.08c.61,0,1.06.46,1.06,1.06l.08,12.29Z"/>
            <path class="cls-6" d="M335.55,73.89c-.08.68-.61,1.29-1.29,1.29h-.08l-13.35-.46c-.68,0-1.29-.61-1.29-1.29v-1.82c-1.97.99-4.32,1.67-6.9,1.67-15.48,0-20.41-10.85-20.41-27.84,0-6.6.83-11.61,1.29-13.88.08-.38.46-.61.83-.61h.08l15.63,1.21c.38,0,.76.23.76.68v.15c-.53,2.96-1.52,12.06-1.52,17.53,0,7.74,1.97,10.55,5.16,10.55s5.08-2.05,5.16-7.36v-22.99c.08-.76.61-1.37,1.29-1.37l14.87-.76s0-.08.08-.08c.61,0,1.14.53,1.14,1.21l-1.44,44.15Z"/>
            <path class="cls-6" d="M387.21,13.35l-2.05,58.42c0,.68-.61,1.29-1.29,1.37l-12.44.61h-.08c-.68,0-1.14-.53-1.21-1.14l-.08-4.1c-2.35,2.28-5.39,3.72-9.56,3.72-11.38,0-18.89-8.42-18.89-21.77,0-12.59,9.03-20.94,19.12-20.94,3.49,0,6.68,1.14,9.33,2.73l.46-18.59c.08-.68.61-1.29,1.29-1.29l14.19-.23h.08c.61,0,1.14.53,1.14,1.14v.08ZM370.06,48.02c-.61-2.43-2.66-4.4-5.54-4.4-3.72,0-6.15,3.03-6.15,7.21s2.73,6.83,6.07,6.83c2.35,0,4.93-2.12,5.61-5.99v-3.64Z"/>
            <path class="cls-6" d="M433.26,58.49c-1.21,6.9-8.27,15.86-19.27,15.86-13.2,0-23.06-7.66-23.06-21.85s8.04-24.58,19.65-24.58c14.49,0,19.5,11.3,19.5,23.67,0,2.35-1.21,2.88-2.43,2.88,0,.08-1.29.23-21.62.68.91,4.86,4.1,6.52,7.06,6.52,2.66,0,5.08-1.37,5.54-3.03.15-.68.68-1.06,1.67-1.06,7.97-.15,11.68-.38,11.84-.38h-.08.08c.76,0,1.14.38,1.14.99v.3ZM410.95,42.1c-2.35,0-4.17,1.44-4.78,4.93,3.19-.15,7.59-.38,7.89-.38.23,0,.3-.08.3-.38,0-2.2-1.06-4.17-3.41-4.17Z"/>
          </g>
          <path class="cls-6" d="M192.23,144.62c-11.46,0-22.46-7.97-22.46-22.68s8.12-23.59,21.24-23.59c12.14,0,20.94,7.97,20.94,23.59,0,14.34-8.27,22.68-19.73,22.68ZM190.71,115.19c-3.79,0-5.77,3.11-5.77,7.13s2.73,6.52,5.99,6.52,5.46-2.81,5.46-6.98c0-3.95-2.58-6.68-5.69-6.68Z"/>
          <path class="cls-6" d="M261.41,101.15l-16.01,41.04c-.3.83-1.29,1.52-2.28,1.52h-.08l-14.64-.53c-.99,0-1.97-.76-2.28-1.67l-14.26-39.3c-.08-.23-.08-.46-.08-.61,0-.76.61-1.37,1.44-1.37l14.95.23c.99.08,1.97.83,2.28,1.75l6.37,21.85,7.36-23.59c.3-.99,1.29-1.67,2.2-1.67h.08l13.66.38c.83.08,1.37.61,1.37,1.37,0,.23,0,.46-.08.61Z"/>
          <path class="cls-6" d="M303.52,128.77c-1.21,6.9-8.27,15.86-19.27,15.86-13.2,0-23.06-7.66-23.06-21.85s8.04-24.58,19.65-24.58c14.49,0,19.5,11.3,19.5,23.67,0,2.35-1.21,2.88-2.43,2.88,0,.08-1.29.23-21.62.68.91,4.86,4.1,6.52,7.06,6.52,2.66,0,5.08-1.37,5.54-3.03.15-.68.68-1.06,1.67-1.06,7.97-.15,11.68-.38,11.84-.38h-.08.08c.76,0,1.14.38,1.14.99v.3ZM281.21,112.38c-2.35,0-4.17,1.44-4.78,4.93,3.19-.15,7.59-.38,7.89-.38.23,0,.3-.08.3-.38,0-2.2-1.06-4.17-3.41-4.17Z"/>
          <path class="cls-6" d="M336.29,99.41c0,1.59-.53,11.53-.61,13.35,0,.38-.3.61-.76.68-8.12.23-11.53,5.39-11.46,14.72,0,0,.08,5.99.08,13.73,0,.68-.53,1.21-1.21,1.21l-12.9.3h-.08c-.61,0-1.14-.46-1.14-1.14l-1.37-41.2v-.08c0-.61.46-1.06,1.06-1.06h.08l13.05.61c.99,0,1.21.23,1.21,1.06v1.82c0,.15,0,.3.08.3,0,0,.08-.08.15-.23,2.66-3.72,7.66-4.93,11.08-4.93.83,0,1.52.08,2.12.15.23.08.61.23.61.61v.08Z"/>
          <path class="cls-6" d="M385.9,143.64c-.08.46-.46.76-.99.76h-.08l-15.25-1.06c-.38,0-.61-.3-.61-.61v-.08c.38-2.58.46-6.07.46-12.06,0-13.73-.53-18.74-5.54-18.74-3.87,0-5.61,2.5-5.54,8.8l.08,21.47c0,.61-.46,1.14-1.06,1.14l-14.19-.38c-.61,0-1.14-.53-1.14-1.14l-1.06-42.33v-.08c0-.61.46-1.06,1.06-1.06l15.1.23c.61.08,1.06.53,1.14,1.21v2.35c2.58-1.29,5.77-2.12,9.71-2.12,11.23,0,18.44,5.16,18.44,27.01,0,9.26-.23,14.57-.53,16.69Z"/>
          <path class="cls-6" d="M413.14,144.62c-11.46,0-22.46-7.97-22.46-22.68s8.12-23.59,21.24-23.59c12.14,0,20.94,7.97,20.94,23.59,0,14.34-8.27,22.68-19.73,22.68ZM411.62,115.19c-3.79,0-5.77,3.11-5.77,7.13s2.73,6.52,5.99,6.52,5.46-2.81,5.46-6.98c0-3.95-2.58-6.68-5.69-6.68Z"/>
          <polygon class="cls-1" points="431.67 89.64 168.2 92.72 168.2 83.42 432.04 83.42 431.67 89.64"/>
          <path class="cls-6" d="M57.07,14.46l-18.82-1.35h-.08c-.75-.03-1.37.66-1.4,1.47-.55,16.32-2.19,100.72-2.19,100.72,0,.09,0,.18-.01.36-.27,6.9-3.75,10.36-7.86,10.2-2.32-.09-4.87-1.35-7.15-3.73-1.24-1.44-2.6-2.83-3.95-4.22-1.07-1.1-2.94-.41-3.04,1.12l-.94,14.13c-.09,1.39-.18,2.8.1,4.17.1.47.27.93.47,1.37.05.25.14.49.33.7.05.05.1.09.14.13.33.48.73.92,1.23,1.23.06.04.12.05.18.08,4.3,3.7,9.66,5.63,15.03,5.83,11.31.44,22.66-6.76,23.79-20.81l5.56-109.83c.03-.81-.62-1.46-1.37-1.58Z"/>
          <path class="cls-8" d="M106.54,143.29c-3.16-3.16-3.66-7.05-3.66-9.25l2.21-25.42c.2-2.29-1.5-4.31-3.79-4.51l-33.17-2.89c-2.29-.2-4.31,1.5-4.51,3.79l-2.76,31.67c-.2,2.29,1.5,4.31,3.79,4.51l30.23,2.63c1.76.56,3.81,1.09,6.15,1.43,3.49.51,6.55.48,8.95.27,0,0-2.96-1.74-3.46-2.24Z"/>
          <circle class="cls-3" cx="83.16" cy="122.17" r="3.62"/>
          <circle class="cls-3" cx="70.96" cy="131.16" r="3.62"/>
          <circle class="cls-3" cx="95.35" cy="113.17" r="3.62"/>
          <g>
            <path class="cls-6" d="M166.73,113.38l-.82-6.58c-.06-.75-.24-1.18-.24-1.18l-9.39,1.85c-.36.06-.71.11-1.07.17,0,.01,0,.03,0,.04l-7.62,1.5-7.49,1.47-1.91.37s.73,4.9,4.12,7.78c1.98,1.68,4.88,2.67,9.07,1.57,1.05-.27,2.18-.68,3.39-1.24-1.76,5.25-5.67,9.25-10.8,10.27-8.28,1.65-16.59-5.06-18.56-14.97-1.98-9.92,3.13-19.29,11.41-20.94,7.07-1.41,14.15,3.28,17.3,10.85,3-1.36,5.99-2.73,8.99-4.09,1.12-.24.88-2.06.59-3.4-.11-.52-.21-.97-.27-1.26-2.1-9.74-14.94-17.71-27.58-14.99-15.61,3.36-26.22,20.2-22.47,37.6,3.73,17.32,16.51,27.87,34.72,23.95,13.46-2.9,20.38-14.82,18.62-28.75Z"/>
            <circle class="cls-6" cx="139.62" cy="102.73" r="2.55"/>
          </g>
          <path class="cls-5" d="M420.54,37.25c.7,1.01,1.25,2.13,2.07,3.04s2.01,1.62,3.23,1.45c.21-2.83-1.09-5.64-3.05-7.7s-4.52-3.45-7.15-4.52c-1.55-.63-3.28-1.17-4.89-.69-1.48.44-2.5,1.89-2.22,3.4,4.57-.45,9.19.97,12,5.02Z"/>
          <path class="cls-5" d="M425.06,45.15c-.45-.74.53-1.71,1.37-1.51s1.34,1.09,1.5,1.94c.15.79.07,1.66-.4,2.32s-1.38,1.03-2.12.71-1.08-1.4-.54-2"/>
          <path class="cls-5" d="M378.54,15.33c1.33.38,2.61,1.12,3.37,2.27.63.96.64,1.64,1.09,4.31.14.84.33,1.94.6,3.23.07.34,1.24.29,1.28-.06.37-3.15.2-5.61.25-7.02s.34-4.34-.16-4.53l-.86-.41c-1.97-.16-5.1.21-6.85.44-.75.1-1.69.21-2.32.69-.2.15-.18.46.05.56.9.4,2.73.27,3.57.51Z"/>
          <path class="cls-5" d="M332.48,30.07c.75-.02,1.56-.03,2.17.41.81.58.98,1.7,1.08,2.7.24,2.34.44,4.86-.49,6.97-.12.28-.53.26-.61-.04l-1.29-4.49c-.1-.36-.23-.71-.39-1.04-1.58-3.08-4.41-1.57-6.84-1.69-.61-.03-1.22-.23-1.67-.65-1.24-1.14.39-2.14,1.61-2.08,2.14.11,4.3-.04,6.44-.11Z"/>
          <path class="cls-5" d="M333.9,42.08c.26-.41.26-.47.6-.57.29-.08.61.09.78.34s.22.56.24.87c.02.37,0,.76-.17,1.09s-.52.59-.89.56c-.46-.03-.8-.5-.85-.96s.11-.89.28-1.32"/>
          <path class="cls-5" d="M276.61,17.92c1.14.78,1.83,2.17,1.76,3.55-.03.56-.17,1.12-.02,1.66s.75,1,1.25.75c.41-.22.48-.76.5-1.23.07-1.77.14-3.55.21-5.32.03-.75.03-1.6-.5-2.14-.52-.54-1.37-.56-2.12-.56-1.09.01-4.58-.61-4.63.81-.04,1.05,2.76,2.47,3.56,2.47Z"/>
          <path class="cls-5" d="M247.65,40.84c.26.65.49,1.34.98,1.83.49.5,1.34.73,1.89.3.66-.52.49-1.55.2-2.33-1.07-2.89-3.39-6.23-6.8-8.32-3.81-2.35-7.28-2.56-8.23-2.6-.79-.03-1.46,0-1.93.05.25.18.62.44,1.1.71,1.03.59,1.89.87,2.18.97,1.04.35,3.34,1.25,4.7,2.06,2.35,1.39,4.85,4.68,5.91,7.34Z"/>
          <path class="cls-5" d="M249.54,45.62c.28-.28,1.47-.42,2.04.44.35.66.71,1.35.73,2.09s-.41,1.56-1.14,1.72c-.82.18-1.59-.53-1.9-1.31-.38-.96-.27-2.1.28-2.97"/>
          <path class="cls-5" d="M223.21,31.49c.24.14.78.46,1.23.27.47-.2.62-.88.68-1.14.03-.13.18-.82-.06-1.32-.34-.68-1.3-.72-4.32-.9-2.9-.17-4-.24-4.13.18-.04.14.02.3.26.6,1.54,1.83,3.87.91,6.34,2.32Z"/>
          <path class="cls-5" d="M183.37,31.67c2.91,1.23,3.32.37,5.82,1.3,2.48.93,4.54,2.93,5.53,5.39.39.95.62,1.98,1.2,2.84.52.78,1.79,1.58,2.61,1.22.56-.25.73-.98.82-1.35.24-1.06.17-2.58-1.26-4.95-1.92-3.17-4.49-4.9-5.2-5.35-2.96-1.9-5.67-2.33-8.03-2.71-1.23-.2-2.39-.14-4.7-.02-.72.04-1.05.07-1.14.28-.25.62,2.01,2.37,4.35,3.36Z"/>
          <path class="cls-5" d="M197.69,44.69c-.07,1.04-.13,2.13.34,3.06.43.85,1.78,1.48,2.58,1.05.94-.5.73-2.22.68-2.59-.06-.48-.16-1.3-.85-1.87-.16-.13-1.06-.77-1.96-.42-.61.24-.8.77-.8.77"/>
          <path class="cls-5" d="M201.11,60.97c.13.46.13.95.26,1.41.1.37.43.96.9,1.03.64.09,1.21-.85,1.33-1.05.04-.06.18-.3.33-.79.15-.49.44-1.49.21-2.71-.13-.67-.19-1-.43-1.26-.56-.61-1.27-.23-4.02-.23-1.19,0-2.1-.07-2.27.35-.05.11-.03.25.06.45.55,1.21,3.08.87,3.63,2.8Z"/>
          <path class="cls-5" d="M148.2,30.99c2.07,0,4.2.03,6.11.83s3.55,2.59,3.54,4.66c0,.37-.06.75.05,1.1s.45.67.81.59c.33-.07.5-.41.64-.71.64-1.44,1.29-2.87,1.93-4.31.46-1.03.91-2.31.25-3.23-.59-.83-1.77-.91-2.79-.92-2.64-.02-5.29-.04-7.93-.05-.55,0-3.23-.37-3.56.07-.31.4.48,1.97.95,1.97Z"/>
          <path class="cls-5" d="M100.33,31.31c1.09-.14,2.15-.57,3.25-.56,2.25.02,4.23,2.22,4.03,4.46-.05.58-.23,1.15-.13,1.72s.62,1.13,1.18,1c.48-.11.73-.75.89-1.19.28-.77.25-1.43.24-1.82-.09-3.05.46-3.5-.15-4.41-.46-.69-1.15-.99-1.43-1.12-.87-.39-1.63-.3-2.36-.28-2.2.06-4.4.11-6.6.17-3.13.08-1.08,2.3,1.07,2.03Z"/>
          <path class="cls-5" d="M106.38,40.96c-.53,1.28-.22,1.87-.31,3.25-.04.69.07,1.53.7,1.8.44.19.96,0,1.29-.34s.53-.78.71-1.22c.33-.78.67-1.6.68-2.45s-.4-1.77-1.18-2.1-1.88.2-1.9,1.05"/>
          <path class="cls-4" d="M401.81,67.89c5.53,3.92,12.5,5.74,19.24,5.02-3.86,1.69-8.21,2.28-12.38,1.67-3.49-.51-6.86-1.84-9.7-3.92-5.1-3.74-10.27-12.41-8.25-18.96,2.53,6.48,5.21,12.02,11.1,16.19Z"/>
          <path class="cls-4" d="M347.5,60.82c2.4,3.4,5.45,6.44,9.2,8.25s8.26,2.28,12.1.69c-2.14,1.4-4.58,2.35-7.1,2.76-5.9.97-12.23-1.18-16.28-5.57-2.48-2.69-4.05-6.17-4.54-9.79-.21-1.57-.53-4.05.12-5.55.95-2.2,2.25,1.92,2.73,2.85,1.13,2.19,2.35,4.34,3.77,6.35Z"/>
          <path class="cls-5" d="M383.57,26.96c-.41.65-.66,1.41-.7,2.19-.02.34.01.73.28.96.26.23.68.19.97,0s.48-.5.64-.81c.21-.43.37-.89.35-1.37s-.23-.96-.64-1.21-1-.2-1.29.18"/>
          <path class="cls-4" d="M299.77,65.55c4.6,5.02,11.7,8.02,18.36,6.62-3.52,1.18-7.28,1.74-10.95,1.28s-7.27-2.01-9.89-4.63c-2.63-2.62-4.17-6.18-4.91-9.82-.45-2.23-1.07-5.23-.68-7.51.14-.85.42-1.4,1.02-.56.5.7.56,2.37.82,3.23,1.26,4.18,3.28,8.16,6.24,11.39Z"/>
          <path class="cls-4" d="M266.64,68.62c2.4,2.86,6.22,4.47,9.94,4.17.38-.03.82-.05,1.06.24.27.33.06.88-.32,1.09s-.83.2-1.27.18c-3.27-.17-6.55-.35-9.82-.52-1.11-.06-2.35-.18-3.05-1.05-.51-.63-.59-1.5-.63-2.31-.06-1.18.04-10.6.96-10.3.68.23.67,3.53.89,4.27.45,1.54,1.21,2.99,2.24,4.22Z"/>
          <path class="cls-5" d="M128.04,31.34c.8,0,1.65.03,2.34.43.81.47,1.27,1.4,1.4,2.33s-.02,1.87-.17,2.8c-1.12-2.11-3.59-3.16-5.95-3.49-1.1-.15-9.1.02-8.03-1.65,1-1.56,8.77-.43,10.4-.41Z"/>
          <path class="cls-4" d="M209.23,64.49c.65,3.57,2.62,7.25,6.05,8.45-1.9-1.2-4.83.5-6.49-1.03-.86-.79-.93-2.1-.93-3.26-.01-1.89-1.13-11.79.71-12.32.82,2.38.17,5.6.66,8.16Z"/>
          <path class="cls-4" d="M238.33,67.85c1.36,2.45,3.56,4.42,6.14,5.5.37.15.82.4.77.8-.05.44-.64.54-1.09.53-2.61-.09-5.22-.19-7.83-.28-.76-.03-1.6-.08-2.16-.61-.77-.72-.65-1.96-.46-3,.24-1.38.73-9.29,1.96-9.8.97-.4,2.08,5.82,2.66,6.86Z"/>
          <path class="cls-4" d="M166,59.74c1.63,3.19,3.93,6.13,7.01,7.98,3.44,2.06,7.56,2.6,11.54,3.09,2.79.34,5.61.68,8.39.34,2.79-.33,5.58-1.41,7.47-3.49-1.22,3.81-4.55,6.71-8.3,8.09-3.76,1.38-7.9,1.39-11.85.75-5.47-.87-10.84-3.01-14.92-6.75-4.08-3.74-6.75-9.2-6.44-14.73.09-1.54,1.65-6.51,3.76-4.17.83.92,1.09,3.45,1.52,4.64.53,1.45,1.11,2.87,1.82,4.24Z"/>
          <path class="cls-4" d="M133.55,69.97c2.86,1.98,6.23,3.23,9.69,3.62-4.99,1.75-10.6,3.47-15.39,1.25-3.32-1.54-5.6-4.77-6.81-8.22-1.16-3.3-1.58-6.97-1.71-10.45-.11-2.95,2.08-2.98,3.4-.66,1.54,2.71,2.73,5.53,4.55,8.1.97,1.36,4.38,6.36,6.28,6.36Z"/>
          <path class="cls-4" d="M72.79,65.39c4.65,4.97,11.39,7.93,18.19,7.97-3.55,2.15-7.96,2.75-12.01,1.85-4.05-.9-7.73-3.23-10.47-6.35-2.84-3.24-4.6-7.36-5.16-11.62-.43-3.3-.55-9.36,1.88-11.96.81.74.73,2.43.82,3.49.16,1.99.33,3.92.84,5.86,1.06,4,3.08,7.75,5.91,10.78Z"/>
          <path class="cls-5" d="M82.4,34.03c.39.56.37,1.32.12,1.96s-.69,1.17-1.13,1.69c.15-1.3-1.05-2.4-2.31-2.77-.98-.29-7.11-.32-4.05-1.73,1.49-.69,6.37-.6,7.38.86Z"/>
          <path class="cls-5" d="M157.09,91.57c.43.59,1.03,1.29,1.74,1.1.48-.13.76-.65.78-1.14.01-.56-.16-1.04-.41-1.41-3.74-5.59-9.74-7.98-9.74-7.98-3.73-1.49-6.79-1.67-7.43-1.7-4.27-.21-8.49.86-8.46,1.26.01.14.54.2,1,.25,4.78.51,7.6.43,9.52.7.79.11,5.09.77,8.05,3.93,1.61,1.71,3.58,3.09,4.95,5Z"/>
          <path class="cls-5" d="M161.97,97.32c.09-.27.08-.57.07-.86-.03-.95-.09-2.48-1.1-2.99-.78-.39-1.05-.08-1.22.69-.25,1.08,1.55,5.21,2.25,3.15Z"/>
          <path class="cls-4" d="M117.03,123.05c2.15,2.97,4.76,5.57,7.35,8.17,2.78,2.78,5.61,5.6,9.08,7.44,5.87,3.12,12.84,3.09,19.49,2.98-4.37,3.24-10.14,4.16-15.54,3.46s-10.49-2.86-15.34-5.32c-2.36-1.2-4.79-2.56-6.25-4.77-1.23-1.87-1.65-4.14-2.03-6.35-.52-2.99-1.05-5.98-1.57-8.98-.24-1.35-.47-2.73-.36-4.11.14-1.78.71-1.61,1.27-.13,1.05,2.73,2.16,5.22,3.9,7.6Z"/>
          <path class="cls-5" d="M203.83,112.19c.3.66.65,1.44,1.35,1.61.77.19,1.53-.52,1.67-1.3s-.16-1.57-.51-2.28c-2.67-5.51-8.33-9.46-14.42-10.05-1.02-.1-3.03.14-2.84,1.6.21,1.59,2.47.97,3.52,1.21,3.11.71,6.01,2.43,8.21,4.74,1.25,1.31,2.28,2.82,3.02,4.47Z"/>
          <path class="cls-5" d="M205.63,116.25c-.21.71-.42,1.45-.26,2.17s.83,1.39,1.56,1.27c.68-.11,1.09-.81,1.25-1.47.14-.6.13-1.25-.14-1.8s-.84-.97-1.46-.95-1.19.58-1.13,1.19"/>
          <path class="cls-4" d="M181.11,138.22c5.97,4.48,14.11,5.91,21.25,3.73-4,3.04-9.08,4.63-14.1,4.4-5.02-.23-9.93-2.28-13.63-5.68-1.84-1.69-3.39-3.72-4.4-6.01-1.11-2.52-1.52-5.28-1.55-8.02-.01-1.07-.11-6.98,1.06-6.76s2.02,5.14,2.45,6.23c.9,2.24,2.03,4.39,3.42,6.36,1.53,2.18,3.38,4.15,5.51,5.75Z"/>
          <path class="cls-5" d="M254.18,102.08c1.16.27,2.31,1.24,2.2,2.43-.06.58-.4,1.09-.62,1.63s-.31,1.23.09,1.66c.42.45,1.21.37,1.69-.02s.75-.98,1-1.55c.35-.8.7-1.62.82-2.49s-.03-1.81-.58-2.49c-.79-.96-2.15-1.17-3.39-1.3-1.44-.16-2.89-.32-4.33-.48-.99-.11-3.64-.09-2.37,1.62,1.05,1.42,4.02.63,5.5.98Z"/>
          <path class="cls-5" d="M223.23,102.69c.82-.04,1.64-.12,2.45-.01s1.63.43,2.15,1.06c.31.37.55.86,1.02.97.52.12,1.05-.37,1.08-.91s-.33-1.03-.78-1.32-.99-.4-1.51-.5c-1.67-.32-3.35-.57-5.04-.74-1.24-.12-3.89-.77-5.04-.26s-.02,1.29.8,1.51c1.48.4,3.35.27,4.87.19Z"/>
          <path class="cls-5" d="M228.25,106.12c-.11.48.23.97.52,1.36s.88.53,1.3.29c.63-.35.66-1.36.12-1.83s-1.45-.35-1.94.18"/>
          <path class="cls-4" d="M226.96,135.01c4.12,4.79,10.12,7.92,16.41,8.57-4.49.61-9,1-13.53,1.18-1.56.06-3.22.07-4.56-.72-1.54-.91-2.33-2.67-2.96-4.35-1.67-4.46-2.87-9.1-3.56-13.82-.13-.9-.56-4.27,1.47-2.62.66.53.93,1.94,1.27,2.7.45,1,.91,1.99,1.42,2.96,1.13,2.17,2.44,4.24,4.04,6.1Z"/>
          <path class="cls-5" d="M285.34,103.63c3.27,1.02,6.07,3.46,7.52,6.56.24.5.45,1.04.85,1.43s1.05.59,1.52.28c.64-.41.52-1.38.27-2.1-1.08-3.08-3.24-5.73-5.94-7.53-1.21-.81-6.16-3.65-7.49-1.79-1.24,1.73,2.28,2.84,3.27,3.15Z"/>
          <path class="cls-5" d="M293.96,113.59c-.05.43-.08.88.02,1.3s.36.83.76,1.01c.65.29,1.49-.21,1.62-.91s-.36-1.43-1.03-1.67-.84-.2-1.37.27"/>
          <path class="cls-4" d="M275.96,140.44c6.03,3.22,13.66,4.09,19.64.78-4.63,3.33-10.2,5.35-15.89,5.77-2.8.2-5.65.02-8.3-.9-4.58-1.59-8.24-5.36-10.24-9.78s-2.44-9.44-1.84-14.26c.07-.54.27-2.42.98-2.57.89-.19,1.1,1.4,1.25,1.99.49,1.94,1.09,3.82,1.93,5.63,1.66,3.58,4.05,6.82,6.98,9.47,1.67,1.51,3.52,2.82,5.5,3.88Z"/>
          <path class="cls-5" d="M332.63,99.44c.79-.08,1.66-.09,2.27.4.53.43.75,1.17.67,1.85s-.39,1.31-.77,1.88c.24-.75-.04-1.63-.66-2.1-.48-.37-1.1-.49-1.7-.54-2.49-.21-4.61.72-6.58,2.14-.59-3.15,4.83-3.44,6.77-3.63Z"/>
          <path class="cls-5" d="M317.87,101.35c.97.16,1.94.7,2.35,1.6.15.34.25.76.59.92.43.21.96-.23,1-.7s-.27-.92-.62-1.24c-.68-.62-1.59-.94-2.5-1.08-1.01-.15-2.81-.37-3.68.21.65.62,2.02.16,2.86.3Z"/>
          <path class="cls-4" d="M308.4,132.26c.63,2.86,1.92,5.66,4.12,7.6,2.59,2.28,6.15,3.13,9.6,3.27-3.78.8-7.61,1.32-11.46,1.56-1.11.07-2.33.08-3.19-.63-.99-.82-1.1-2.26-1.12-3.54-.04-2.82.03-5.65.22-8.47.08-1.17.02-7.07,1.16-7.31.27,2.52.13,5.02.67,7.52Z"/>
          <path class="cls-5" d="M375.92,106.48c2.25,2.52,3.64,5.67,5.09,8.72.3.64.92,1.4,1.55,1.08.38-.19.49-.66.54-1.08.49-3.95-.91-8.09-3.7-10.93-2.64-2.69-6.49-4.18-10.25-3.95-.72.04-3.77.57-2.79,1.83.54.69,3.09.48,3.91.69,2.18.56,4.15,1.97,5.64,3.63Z"/>
          <path class="cls-5" d="M381.34,118.6c-.15.54.04,1.08.15,1.28.26.5.56.95,1.1,1.11.57.17,1.21-.19,1.46-.73s.13-1.2-.2-1.69c-.29-.44-.77-.77-1.3-.79s-1.07.32-1.2.83"/>
          <path class="cls-5" d="M355.94,102.11c.4.36.89.77,1.41.64.59-.15.79-.94.53-1.49s-.82-.88-1.36-1.15c-1.81-.9-3.79-1.47-5.8-1.68-.44-.04-.89-.07-1.32.06-.28.09-.51.21-.65.46.69.66,2.84.67,3.83,1.07,1.22.5,2.36,1.2,3.35,2.07Z"/>
          <path class="cls-4" d="M341.59,120.02c-.09,3.07-.19,6.15.2,9.2s1.29,6.08,3.02,8.61c2.11,3.08,5.45,5.29,9.11,6.04-3.44.44-6.91.56-10.37.36-1.78-.1-3.79-.42-4.77-1.9-.64-.96-.68-2.18-.65-3.33.13-4.92,1.22-9.81,3.19-14.31"/>
          <path class="cls-4" d="M372.62,139.63c2.08,2.35,5.01,3.95,8.11,4.42-3.23.59-6.52.88-9.81.87-1.43,0-3.1-.19-3.87-1.4-.54-.84-.46-1.93-.33-2.92.12-.93,1.5-9.12,2.46-8.73.3.12.85,3.42,1.06,3.93.57,1.4,1.38,2.7,2.38,3.83Z"/>
          <path class="cls-5" d="M421.4,107.19c2.87,2.62,4.69,6.36,5,10.24.09,1.16.3,2.65,1.43,2.9.71.16,1.44-.35,1.76-1.01s.32-1.42.27-2.15c-.29-4.05-1.98-8-4.72-11-2.74-3.01-6.5-5.06-10.51-5.73-1-.17-4.16-.4-4.4,1.19-.16,1.04,1.65,1.32,2.37,1.5,3.28.83,6.23,1.71,8.8,4.06Z"/>
          <path class="cls-5" d="M427.65,128.4c.64-.21.97-.85,1.19-1.51.04-.12.08-.24.11-.36.16-.55.32-1.1.33-1.68.02-2.35-2.11-2.22-3.08-.63-.7,1.15-1.01,4.96,1.44,4.17Z"/>
          <path class="cls-4" d="M393.52,128.82c1.9,3.02,4.56,5.5,7.43,7.61,3.23,2.38,6.8,4.35,10.64,5.5s7.98,1.44,11.89.53c-5.28,2.76-11.32,4.03-17.26,3.63-2.11-.14-4.22-.49-6.17-1.29-4.72-1.92-8.14-6.34-9.6-11.22-.67-2.22-.96-4.53-.97-6.84,0-1.99-.08-4.8.77-6.61.96.37.91,3.19,1.19,4.13.48,1.6,1.19,3.14,2.09,4.55Z"/>
          <path class="cls-5" d="M141.32,101.45c.16.23.27.51.26.79,0,.1-.04.22-.13.24-.12.03-.21-.09-.28-.19-.35-.55-.95-.94-1.6-1.04-.31-.05-.73-.16-.52-.56.13-.25.34-.25.59-.22.67.08,1.3.41,1.68.98Z"/>
          <path class="cls-4" d="M137.1,101.81c-.04,1.03.5,2.07,1.37,2.62s2.04.61,2.96.15c-.48.46-1,.92-1.62,1.17-.62.25-1.38.26-1.92-.13-.38-.28-.62-.72-.77-1.16-.28-.82-.33-1.71-.14-2.56.02.1.04.2.06.3"/>
          <path class="cls-5" d="M163.52,112.96c.41,1.62.6,3.3,1.18,4.86.19.52.58,1.12,1.13,1.05.35-.04.61-.36.7-.69s.04-.69-.01-1.04c-.42-2.67-1.19-5.29-2.29-7.77-.22-.5-.46-1.01-.85-1.39s-.96-.63-1.49-.5c-1.58.39-.35,1.56.13,2.17.75.96,1.19,2.14,1.5,3.31Z"/>
          <path class="cls-4" d="M14.87,132.52c5.01,7.86,14.11,12.95,23.43,13.1-4.23,1.91-8.9,2.85-13.55,2.73-3.59-.1-7.24-.85-10.28-2.76-3.33-2.09-5.79-5.53-6.68-9.36-.63-2.73-.82-9.22,1.8-11.19,1.33-1,2.23.16,2.74,1.39.86,2.1,1.29,4.11,2.54,6.08Z"/>
          <path class="cls-5" d="M52.49,19.34c1.42,1.2,2.16,3.15,1.9,4.99-.1.73-.36,1.45-.36,2.19s.33,1.56,1.02,1.81c.74.28,1.6-.23,1.98-.92s.42-1.52.45-2.31c.09-2.55.12-5.34-1.45-7.36-.98-1.27-2.49-2.06-4.06-2.42s-3.19-.32-4.79-.17c-2.06.19-2.56,1.73-.5,2.34s4.02.34,5.8,1.84Z"/>
          <path class="cls-5" d="M53.26,41.57c-.07.61-.13,1.24.01,1.84s.53,1.18,1.12,1.37c1.72-2.12,2.49-4.98,2.08-7.68-.22-1.43-1.3-2.73-2.4-1.25-.92,1.22-.65,4.25-.81,5.72Z"/>
          <path class="cls-4" d="M182.44,90.69c13.05.33,26.1.65,39.15.98-3.56,2.55-8.24,2.69-12.62,2.73-12.51.12-25.02.24-37.53.37-1.36.01-2.82,0-3.93-.79-1.22-.87-1.69-2.52-1.47-4,.17-1.12.82-3.39,2.18-3.29.99.07,2.73,1.98,3.77,2.42,3.27,1.37,6.94,1.51,10.44,1.59Z"/>
          <path class="cls-5" d="M428.35,87c.55.03,1.19.02,1.52-.42.35-.47.09-1.19-.39-1.53s-1.09-.4-1.68-.45c-6.81-.55-13.65-.74-20.49-.58-.91.02-3.09-.37-3.5.74-.5,1.35,1.98.93,2.78.98,3.47.2,6.93.4,10.4.6,3.79.22,7.57.44,11.36.66Z"/>
        </g>
      </g>
    </g>
  </g>
</svg>