<?xml version="1.0" encoding="UTF-8"?>
<svg id="Camada_2" data-name="Camada 2" xmlns="http://www.w3.org/2000/svg" viewBox="0 0 176.91 87.14">
  <defs>
    <style>
      .cls-1 {
        fill: #fab510;
      }

      .cls-2 {
        fill: #e7236b;
      }

      .cls-3 {
        fill: #2d1b45;
      }

      .cls-4 {
        fill: #ebebeb;
      }
    </style>
  </defs>
  <g id="Plano_1" data-name="Plano 1">
    <g>
      <g>
        <path class="cls-3" d="M176.85,46.08l-.34-6.41-.06-.4c-.19-1.33-.63-2.56-1.28-3.65.24-1.4.27-3,.02-4.82l-.16-1.1c-1.78-12.6-14.86-22.85-29.16-22.85-1.4,0-2.82.1-4.2.29-6.4.9-12.12,3.61-16.83,7.52-.17-4.9-3.77-9.07-8.7-9.86l-.39-.06-13.08-.94-.75-.03c-5.5,0-9.98,4.36-10.19,9.97-.25,7.35-.83,20.87-1.19,28.89-1.43-.71-3.01-1.08-4.65-1.08-.3,0-.58.06-.87.09l1.75-20.1c.75-8.63-5.66-16.26-14.29-17.01L21.33.06c-.46-.04-.92-.06-1.37-.06C11.75,0,5.03,6.17,4.31,14.34L.06,63.19c-.75,8.63,5.66,16.26,14.29,17.01l45.62,3.97c3.31,1.01,6.57,1.74,9.94,2.23,3.32.49,6.71.74,10.08.74h0c1.95,0,3.92-.08,5.86-.25l29.04-2.46-10.07-5.93c.72-.24,1.42-.52,2.11-.82,2.75,2.64,6.44,4.18,10.3,4.18h0c3.2,0,6.25-1,8.82-2.9,1.25-.92,2.3-2,3.17-3.18,4.69,2.6,10.11,4.04,16.07,4.04,1.86,0,3.77-.14,5.7-.41,16.14-2.28,26.77-15.99,25.85-33.33Z"/>
        <g>
          <path class="cls-1" d="M114.69,13.96l-12.69-.91h-.06c-.51-.02-.92.45-.94.99-.37,11-1.48,35.39-1.48,35.39,0,.06,0,.12,0,.24-.18,4.65-2.53,6.98-5.3,6.87-1.56-.06-3.28-.91-4.82-2.51-.84-.97-1.75-1.91-2.66-2.84-.72-.74-1.98-.28-2.05.76l-.64,9.52c-.06.94-.12,1.89.07,2.81.07.32.18.63.31.92.03.17.1.33.22.47.03.03.07.06.1.09.23.33.49.62.83.83.04.02.08.03.12.06,2.9,2.5,6.51,3.79,10.13,3.93,7.62.29,15.27-4.55,16.03-14.02l3.75-41.53c.02-.54-.41-.98-.92-1.06Z"/>
          <path class="cls-4" d="M79.74,74.19c-4.88-4.88-5.65-10.87-5.64-14.26l3.41-39.21c.31-3.53-2.31-6.65-5.84-6.95l-51.16-4.46c-3.53-.31-6.65,2.31-6.95,5.84l-4.25,48.84c-.31,3.53,2.31,6.65,5.84,6.96l46.62,4.06c2.71.87,5.87,1.68,9.49,2.21,5.38.79,10.1.74,13.81.42,0,0-4.57-2.69-5.33-3.45Z"/>
          <circle class="cls-3" cx="43.68" cy="41.62" r="5.59"/>
          <circle class="cls-3" cx="24.87" cy="55.49" r="5.59"/>
          <circle class="cls-3" cx="62.49" cy="27.74" r="5.59"/>
          <circle class="cls-2" cx="117.23" cy="66.99" r="5.59"/>
        </g>
        <polygon class="cls-3" points="76.35 4.96 98.7 4.96 98.7 32.12 98.7 45.14 85.2 45.14 79.97 42.03 76.35 4.96"/>
        <polygon class="cls-3" points="114.57 84.46 120.95 79.78 109.18 75.3 101.43 75.6 100.4 77.86 102.27 79.88 109.18 82.14 114.57 84.46"/>
        <polygon class="cls-3" points="116.63 5.9 143.13 6.97 135.04 13.05 122.82 17.97 116.63 5.9"/>
        <polygon class="cls-3" points="111.15 83.75 151.73 79.3 130.4 73.58 119.05 77.03 111.15 83.75"/>
      </g>
      <path class="cls-1" d="M147.96,36.94c-.19.22-1.11-.79-2.63-.72-1.31.07-2.02.89-2.17.72-.22-.25.78-2.4,2.4-2.4,1.62,0,2.64,2.13,2.4,2.4Z"/>
      <path class="cls-1" d="M151.28,41.98l-.07-1.08s2.46-.31,2.8-.36c4.27-.58,8.63-1.31,12.23-1.98.33,0,.7.12.77.44v.06s.75,5.89.75,5.89c1.52,12.04-4.46,22.33-16.08,24.83-15.73,3.39-26.77-5.72-29.99-20.68-3.24-15.03,5.93-29.56,19.41-32.47,10.92-2.35,22.01,4.53,23.82,12.94.06.26.14.64.24,1.09.25,1.16.45,2.72-.51,2.93-3.54,1.61-7.07,3.22-10.61,4.83-.07-.99-.49-5.55-4.05-8.21-1.38-1.03-2.72-1.4-3.1-1.49-3.26-.83-5.99.54-6.71.93-3.17,1.74-4.28,4.84-4.95,6.71-1.09,3.05-.93,5.62-.8,7.64.14,2.09.31,4.73,1.88,7.64.78,1.45,2.04,3.78,4.82,5.23.9.47,4.28,2.05,7.85.66,3.52-1.37,5.9-5.13,5.94-9.45-.29.32-2.32,2.5-5.43,2.35-2.04-.1-3.48-1.16-4.08-1.68-1.21-1.05-1.72-2.24-2.07-3.09-.72-1.73-.77-3.27-.73-4.13,1.84,1.09,3.46,1.53,4.52,1.74.83.16,3.59-.29,4.15-1.3Z"/>
      <ellipse class="cls-3" cx="145.45" cy="43.19" rx="12.76" ry="14.74" transform="translate(-5.64 29.25) rotate(-11.27)"/>
      <path class="cls-1" d="M166.85,38.26l-23.72,4.66s1.98,13.24,15.11,6.62c11.05-5.57,8.61-11.28,8.61-11.28Z"/>
      <circle class="cls-1" cx="144.34" cy="35.76" r="2.2"/>
    </g>
  </g>
</svg>