<?xml version="1.0" encoding="UTF-8"?>
<svg id="Camada_2" data-name="Camada 2" xmlns="http://www.w3.org/2000/svg" viewBox="0 0 25.05 25">
  <defs>
    <style>
      .cls-1 {
        fill: #fff;
      }
    </style>
  </defs>
  <g id="Camada_1-2" data-name="Camada 1">
    <path class="cls-1" d="M22.56,18.02c.82,0,1.49.67,1.49,1.49v.99c0,.82-.67,1.49-1.49,1.49H7.27c-.25,0-.48.08-.68.22-.48.36-1.65.8-3.47,1.32.02-.16.03-.31.03-.47-.02-.54-.42-1-.97-1.09-.66-.11-1.13-.67-1.13-1.33v-1.14c0-.82.67-1.49,1.49-1.49h20.02M22.56,17.02H2.54c-1.38,0-2.49,1.12-2.49,2.49v1.14c0,1.17.86,2.13,1.97,2.31.07.01.13.06.13.13.02.45-.16.99-.77,1.65-.09.1,0,.25.12.25.01,0,.03,0,.04,0,3.58-.91,5.01-1.5,5.65-1.98.02-.02.05-.03.08-.03h15.29c1.38,0,2.49-1.12,2.49-2.49v-.99c0-1.38-1.12-2.49-2.49-2.49h0Z"/>
    <path class="cls-1" d="M22.66,9.49c.74,0,1.34.6,1.34,1.34v1.29c0,.74-.6,1.34-1.34,1.34H2.34c-.74,0-1.34-.6-1.34-1.34v-1.29c0-.74.6-1.34,1.34-1.34h20.32M22.66,8.49H2.34c-1.29,0-2.34,1.05-2.34,2.34v1.29c0,1.29,1.05,2.34,2.34,2.34h20.32c1.29,0,2.34-1.05,2.34-2.34v-1.29c0-1.29-1.05-2.34-2.34-2.34h0Z"/>
    <path class="cls-1" d="M22.71,1c.74,0,1.34.6,1.34,1.34v1.29c0,.74-.6,1.34-1.34,1.34H2.39c-.74,0-1.34-.6-1.34-1.34v-1.29c0-.74.6-1.34,1.34-1.34h20.32M22.71,0H2.39C1.1,0,.05,1.05.05,2.34v1.29c0,1.29,1.05,2.34,2.34,2.34h20.32c1.29,0,2.34-1.05,2.34-2.34v-1.29c0-1.29-1.05-2.34-2.34-2.34h0Z"/>
  </g>
</svg>