<?xml version="1.0" encoding="UTF-8"?>
<svg id="Camada_2" data-name="Camada 2" xmlns="http://www.w3.org/2000/svg" viewBox="0 0 24.16 23.7">
  <defs>
    <style>
      .cls-1 {
        fill: #fff;
      }
    </style>
  </defs>
  <g id="Camada_1-2" data-name="Camada 1">
    <path class="cls-1" d="M17.42,1h0c.84,0,1.69.39,2.33,1.07,2.04,2.11,3.15,4.82,3.4,8.27.07,1.02-.29,1.97-.96,2.54-2.19,1.89-7.04,3.56-11.49,4.95-.77.24-1.54.63-2.31,1.15-1.34.92-2.78,1.68-4.28,2.25.28-.94.56-2.01.7-2.76.12-.69-.05-1.4-.49-2.02-1.55-2.07-2.39-4.33-2.58-6.91-.06-.82.18-1.62.65-2.14,2.06-2.31,6.63-4.32,14.38-6.32.21-.05.43-.08.65-.08M17.42,0c-.3,0-.6.04-.9.11C9.73,1.86,4.15,3.91,1.64,6.73c-.66.74-.98,1.8-.9,2.88.21,2.88,1.2,5.33,2.78,7.44.26.36.39.8.31,1.24-.18.95-.62,2.53-.99,3.68-.1.3.14.59.43.59.04,0,.08,0,.13-.02,1.97-.63,3.85-1.55,5.56-2.73.63-.43,1.31-.79,2.04-1.02,5.06-1.58,9.61-3.23,11.84-5.15.92-.79,1.4-2.04,1.31-3.37-.25-3.5-1.38-6.52-3.68-8.9C19.62.49,18.51,0,17.42,0h0Z"/>
    <path class="cls-1" d="M.93,10.75l1.59,3.42,1.85,3.54-.73,3.45.38.57,3.13-1.37,1.91-1.34,3.61-1.31,7.47-2.9,3.71-3.16c.13,1.51.07,2.64.07,2.64-.1,1.32-.4,2.58-1.34,3.38-2.62,2.21-8.42,4.06-14.52,5.87-1.5.44-3.18-.1-4.32-1.38-.09-.1-.17-.19-.25-.29C1.52,19.58.25,16.89.01,13.63c-.08-1.08.24-2.14.92-2.88"/>
    <path class="cls-1" d="M11.47,13.02c-1.33-1.63-2.01-3.42-2.25-5.32-.07-.57.33-1.11.9-1.21,1.85-.32,3.75-.19,5.73.67.56.24.8.91.55,1.46-.8,1.78-1.89,3.32-3.39,4.56-.46.38-1.16.31-1.54-.15Z"/>
  </g>
</svg>