<?xml version="1.0" encoding="UTF-8"?>
<svg id="Camada_2" data-name="Camada 2" xmlns="http://www.w3.org/2000/svg" viewBox="0 0 25 24.66">
  <defs>
    <style>
      .cls-1 {
        fill: #fff;
      }
    </style>
  </defs>
  <g id="Camada_1-2" data-name="Camada 1">
    <path class="cls-1" d="M15.75,1.13l-.55,2.86c-.15.8.28,1.58,1.07,1.89,4.12,1.64,10.01,7.03,6.83,16.97-.88-6.16-2.81-9.14-7.12-11.16-.24-.11-.5-.17-.76-.17-.84,0-1.56.58-1.72,1.39l-.47,2.46L1.33,6.01,15.75,1.13M16.1,0c-.08,0-.17.01-.25.04L.49,5.24c-.54.18-.67.85-.23,1.2l12.45,9.97c.14.11.31.17.48.17.34,0,.67-.22.73-.58l.56-2.89c.07-.35.39-.58.74-.58.11,0,.23.02.34.08,3.89,1.83,5.85,4.33,6.69,11.44.05.41.4.63.75.63.29,0,.58-.15.7-.47,3.96-10.69-1.85-17.17-7.05-19.24-.33-.13-.52-.44-.45-.77l.64-3.35C16.92.38,16.54,0,16.1,0h0Z"/>
  </g>
</svg>