<?xml version="1.0" encoding="UTF-8"?>
<svg xmlns="http://www.w3.org/2000/svg" viewBox="0 0 1000 1000">
  <defs>
    <style>
      .cls-1 {
        mix-blend-mode: multiply;
        opacity: .14;
      }

      .cls-1, .cls-2 {
        fill: #2c1b45;
      }

      .cls-3 {
        fill: #e6216a;
      }

      .cls-4 {
        fill: #f9b40d;
      }

      .cls-5 {
        fill: #fff;
        mix-blend-mode: luminosity;
        opacity: .6;
      }

      .cls-6 {
        isolation: isolate;
      }

      .cls-7 {
        fill: #2d1b45;
      }

      .cls-8 {
        fill: #eaeaea;
      }
    </style>
  </defs>
  <g class="cls-6">
    <g id="Camada_2" data-name="Camada 2">
      <g id="Fundo">
        <rect class="cls-7" width="1000" height="1000" rx="300" ry="300"/>
      </g>
      <g id="Camada_3" data-name="Camada 3">
        <g>
          <path class="cls-2" d="M61.3,592.41c1.2,9.94,2.4,19.89,3.6,29.83,7.5,4.83,19.04,11.51,34,17.32,23.15,8.99,42.5,11.22,52.78,12.24,53.26,5.3,109.3,2.83,169.44,1.57,14.72-.31,35.09-.57,75.84-1.06,46.78-.56,82.56-.85,93.8-.94,107.14-.85,130.57.6,167.82-.76,48.58-1.77,118.06,2.2,206.91-12.01,2.33,3.73,4.77,6.7,7.74,9.81,0,0,5.2,5.85,10.93,10.67,7.8,6.55,30.27,16.45,61.73,21.36-4.81-6.05-22.95-30.34-20.68-64.86,1.61-24.51,12.69-41.78,17.95-48.95"/>
          <path class="cls-2" d="M943.49,419.01c-1.29-41.67-25.16-67.49-62.57-67.49-8.67,0-16.89,1.8-24.53,5.36l.38-10.96v-.89c.01-14.04-11.48-25.46-25.66-25.46l-28.93.46c-13,.14-23.9,10.12-25.35,23.21l-.37,11.6c-9.4.55-18.46,3.27-26.57,7.97-4.78-6.29-12.24-10.07-20.25-10.07l-23.28,1.3-7.8.4c-5.88.2-11.43,2.39-15.86,6.23-1.27-.28-2.55-.45-3.81-.52l-31.33-2.43-1.9-.07c-.74,0-1.48.04-2.24.11l.52-9.75v-.52c0-6.73-2.6-13.08-7.33-17.87-4.73-4.79-10.99-7.43-17.58-7.43h0l-31.25-.31c-13.76,0-25.11,11.19-25.3,24.92l-.21,9.55c-2.86,1.13-5.48,2.79-7.76,4.9-8.2-4.11-17.96-6.19-29.07-6.19-3.16,0-6.27.19-9.29.57-3.01-1.76-6.29-2.87-9.8-3.31l-33.43-.64c-7.69,0-14.92,3.55-19.68,9.47-9.73-6.39-21.37-9.62-34.68-9.62-9.64,0-18.76,2.24-27.15,6.68-3.73-2.59-8.07-4.17-12.67-4.59l-29.16-.86h-.73c-7.75,0-15.12,3.28-20.37,8.95-4.3-3.18-9.4-5.11-14.71-5.52l-31.62-.52c-3.63-1.92-7.68-2.92-11.79-2.92l-23.28,1.3-7.8.4c-5.88.2-11.43,2.39-15.86,6.23-1.27-.28-2.55-.45-3.8-.52l-28.66-2.23.32-6.42c.51-13.28-9.07-24.86-22.28-26.95l-40.77-3.01-1.21-.03c-13.97,0-25.34,11.13-25.88,25.37-.94,28.19-3.48,155.35-4.22,192.7-4.94-4.53-11.29-7.01-18.03-7.01-14.04,0-25.78,10.97-26.72,24.97l-1.91,28.6c-.25,3.71-.59,8.8.62,14.67.42,2.04,1.03,4.02,1.77,5.84,1.09,3.28,2.78,6.25,5.01,8.82l.15.17c2.08,2.62,4.48,4.83,7.11,6.59,12.02,9.7,27.25,15.37,42.93,15.97.95.04,1.9.05,2.85.05,18.33,0,36.43-7.28,49.23-19.63,5.14,4.83,11.69,7.77,18.81,8.39l58.77,5.12c4.49,1.31,8.92,2.28,13.52,2.95,7.71,1.14,15.67,1.38,23.45.72l42.33-3.59c6.25,1.32,12.79,2,19.44,2,20.22,0,38.42-7.82,51.7-22.11,12.8,13.82,31.56,21.96,51.03,21.96s35.54-7.45,47.02-21.15c4.01,10.68,14.24,17.98,25.59,18.22l29.92,1.08h.51c11.43,0,22.21-7.38,26.22-17.92l1.63-4.19c12.51,15.31,32.3,23.95,55.37,23.95,11.74,0,23.12-3.34,33.1-9.68,4.73,4.63,11.03,7.22,17.72,7.22l26.66-.62c8.58-.13,16.34-4.58,20.92-11.46,4.59,6.6,12.16,10.86,20.43,11l29.2.77c4.36,0,8.58-1.11,12.33-3.23,3.38,2,7.17,3.15,11.07,3.35l31.26,2.18h1.09c8.05,0,15.46-3.74,20.16-9.99,11.02,6.77,24,10.46,36.96,10.46,37.14,0,63.09-28.4,63.09-69.07,0-16.2-3.89-30.7-11.31-42.39l7.6-.09,3.42-58.64h-9.06c4.97-7.24,8.39-15.3,9.8-23.31l.3-1.68.06-2.95c0-6.38-2.3-12.34-6.51-16.94Z"/>
          <g>
            <path class="cls-3" d="M202.01,516.73c-4.06-.35-7.12-1.84-9.18-4.46-2.06-2.62-2.9-6.18-2.5-10.69l.21-2.4c.42-4.77,1.78-8.35,4.09-10.76,2.31-2.41,5.41-3.44,9.3-3.1,3.8.33,6.55,1.79,8.26,4.39,1.71,2.59,2.37,6.27,1.99,11.03l-.34,3.88-15.73-1.37c-.08,2.25.27,3.94,1.05,5.05.78,1.11,2.09,1.75,3.91,1.91,2.64.23,4.93-.48,6.86-2.13l2.68,5.05c-1.09,1.26-2.59,2.22-4.5,2.89s-3.95.91-6.11.72ZM198.65,497.75l7.9.69.06-.73c.12-1.81-.06-3.2-.54-4.18-.48-.98-1.41-1.53-2.78-1.65s-2.43.29-3.14,1.22c-.71.93-1.21,2.48-1.51,4.65Z"/>
            <path class="cls-3" d="M227.28,487.91l-.02,2.81c1.96-2.08,4.4-2.99,7.3-2.74,3.02.26,5.03,1.81,6.04,4.64,1.97-2.57,4.55-3.71,7.76-3.43,5.29.46,7.68,4.36,7.17,11.69l-1.72,19.8-7.9-.69,1.68-19.3c.15-1.75.02-3.02-.4-3.81-.42-.79-1.21-1.23-2.36-1.33-1.47-.13-2.65.68-3.53,2.42l-.03.95-1.79,20.5-7.9-.69,1.68-19.25c.15-1.73.03-3-.37-3.82-.4-.81-1.19-1.27-2.38-1.38-1.36-.12-2.5.52-3.43,1.92l-1.91,21.95-7.9-.69,2.63-30.22,7.4.64Z"/>
          </g>
          <g>
            <path class="cls-4" d="M269.92,469.13c-.15,1.38-1.23,2.61-2.61,2.61h-.15l-27.03-.92c-1.38,0-2.61-1.23-2.61-2.61v-3.69c-3.99,2-8.75,3.38-13.98,3.38-31.33,0-41.31-21.96-41.31-56.36,0-13.36,1.69-23.5,2.61-28.1.15-.77.92-1.23,1.69-1.23h.15l31.64,2.46c.77,0,1.54.46,1.54,1.38v.31c-1.07,5.99-3.07,24.42-3.07,35.47,0,15.66,3.99,21.35,10.44,21.35s10.29-4.15,10.44-14.9v-46.53c.15-1.54,1.23-2.76,2.61-2.76l30.1-1.54s0-.15.15-.15c1.23,0,2.3,1.07,2.3,2.46l-2.92,89.38Z"/>
            <path class="cls-4" d="M379.41,382.06l-32.4,83.08c-.61,1.69-2.61,3.07-4.61,3.07h-.15l-29.64-1.07c-2,0-3.99-1.54-4.61-3.38l-28.87-79.55c-.15-.46-.15-.92-.15-1.23,0-1.54,1.23-2.76,2.92-2.76l30.25.46c2,.15,3.99,1.69,4.61,3.53l12.9,44.23,14.9-47.76c.61-2,2.61-3.38,4.45-3.38h.15l27.64.77c1.69.15,2.76,1.23,2.76,2.76,0,.46,0,.92-.15,1.23Z"/>
            <path class="cls-4" d="M464.63,437.96c-2.46,13.97-16.74,32.1-39.01,32.1-26.72,0-46.69-15.51-46.69-44.23s16.28-49.76,39.77-49.76c29.33,0,39.47,22.88,39.47,47.91,0,4.76-2.46,5.84-4.91,5.84,0,.15-2.61.46-43.77,1.38,1.84,9.83,8.29,13.21,14.28,13.21,5.37,0,10.29-2.76,11.21-6.14.31-1.38,1.38-2.15,3.38-2.15,16.12-.31,23.65-.77,23.96-.77h-.15.15c1.54,0,2.3.77,2.3,2v.61ZM419.48,404.79c-4.76,0-8.45,2.92-9.67,9.98,6.45-.31,15.36-.77,15.97-.77.46,0,.61-.15.61-.77,0-4.45-2.15-8.45-6.91-8.45Z"/>
            <path class="cls-4" d="M561.84,468.06c-.15.92-.92,1.54-2,1.54h-.15l-30.87-2.15c-.77,0-1.23-.61-1.23-1.23v-.15c.77-5.22.92-12.29.92-24.42,0-27.8-1.07-37.93-11.21-37.93-7.83,0-11.36,5.07-11.21,17.81l.15,43.46c0,1.23-.92,2.3-2.15,2.3l-28.72-.77c-1.23,0-2.3-1.07-2.3-2.3l-2.15-85.69v-.15c0-1.23.92-2.15,2.15-2.15l30.56.46c1.23.15,2.15,1.07,2.3,2.46v4.76c5.22-2.61,11.67-4.3,19.66-4.3,22.73,0,37.32,10.44,37.32,54.67,0,18.74-.46,29.49-1.07,33.79Z"/>
            <path class="cls-4" d="M633.24,407.09c0,1.23-.92,2.15-2,2.15l-11.06-.15c-1.23,0-2.3.92-2.3,2.15l-3.23,56.05c-.15,1.23-1.07,2-2.15,2h-.15l-26.87-1.69c-1.07,0-2-1.08-2-2.15v-.15l1.23-54.36v-.15c0-1.08-1.07-2-2.15-2.15h-9.21c-1.23,0-2.15-1.08-2.3-2.15l-1.38-25.19v-.15c0-1.08.92-2,2-2l11.36.15c1.23,0,2.15-.92,2.15-2.15l.61-28.56c0-1.23.92-2.15,2.15-2.15l31.02.31c1.08,0,2,.92,2,2.15l-1.54,28.72v.15c0,1.23.92,2.15,2,2.15l9.52.15c1.23,0,2.15.92,2.15,2.15l.15,24.88Z"/>
            <path class="cls-4" d="M729.22,469.13c-.15,1.38-1.23,2.61-2.61,2.61h-.15l-27.03-.92c-1.38,0-2.61-1.23-2.61-2.61v-3.69c-3.99,2-8.75,3.38-13.98,3.38-31.33,0-41.31-21.96-41.31-56.36,0-13.36,1.69-23.5,2.61-28.1.15-.77.92-1.23,1.69-1.23h.15l31.64,2.46c.77,0,1.54.46,1.54,1.38v.31c-1.07,5.99-3.07,24.42-3.07,35.47,0,15.66,3.99,21.35,10.44,21.35s10.29-4.15,10.44-14.9v-46.53c.15-1.54,1.23-2.76,2.61-2.76l30.1-1.54s0-.15.15-.15c1.23,0,2.3,1.07,2.3,2.46l-2.92,89.38Z"/>
            <path class="cls-4" d="M833.79,346.58l-4.15,118.25c0,1.38-1.23,2.61-2.61,2.76l-25.19,1.23h-.15c-1.38,0-2.3-1.08-2.46-2.3l-.15-8.29c-4.76,4.61-10.9,7.52-19.35,7.52-23.04,0-38.24-17.05-38.24-44.07,0-25.49,18.27-42.39,38.7-42.39,7.06,0,13.51,2.3,18.89,5.53l.92-37.62c.15-1.38,1.23-2.61,2.61-2.61l28.72-.46h.15c1.23,0,2.3,1.08,2.3,2.3v.15ZM799.08,416.77c-1.23-4.91-5.37-8.91-11.21-8.91-7.53,0-12.44,6.14-12.44,14.59s5.53,13.82,12.29,13.82c4.76,0,9.98-4.3,11.36-12.13v-7.37Z"/>
            <path class="cls-4" d="M927,437.96c-2.46,13.97-16.74,32.1-39.01,32.1-26.72,0-46.69-15.51-46.69-44.23s16.28-49.76,39.77-49.76c29.33,0,39.47,22.88,39.47,47.91,0,4.76-2.46,5.84-4.91,5.84,0,.15-2.61.46-43.77,1.38,1.84,9.83,8.29,13.21,14.28,13.21,5.37,0,10.29-2.76,11.21-6.14.31-1.38,1.38-2.15,3.38-2.15,16.12-.31,23.65-.77,23.96-.77h-.15.15c1.54,0,2.3.77,2.3,2v.61ZM881.85,404.79c-4.76,0-8.45,2.92-9.67,9.98,6.45-.31,15.36-.77,15.97-.77.46,0,.61-.15.61-.77,0-4.45-2.15-8.45-6.91-8.45Z"/>
          </g>
          <path class="cls-4" d="M439.11,612.32c-23.19,0-45.46-16.13-45.46-45.92s16.43-47.76,43-47.76c24.57,0,42.39,16.12,42.39,47.76,0,29.02-16.74,45.92-39.93,45.92ZM436.03,552.73c-7.68,0-11.67,6.3-11.67,14.44s5.53,13.21,12.13,13.21,11.06-5.68,11.06-14.13c0-7.99-5.22-13.51-11.52-13.51Z"/>
          <path class="cls-4" d="M579.16,524.32l-32.4,83.08c-.61,1.69-2.61,3.07-4.61,3.07h-.15l-29.64-1.07c-2,0-3.99-1.54-4.61-3.38l-28.87-79.55c-.15-.46-.15-.92-.15-1.23,0-1.54,1.23-2.76,2.92-2.76l30.25.46c2,.15,3.99,1.69,4.61,3.53l12.9,44.23,14.9-47.76c.61-2,2.61-3.38,4.45-3.38h.15l27.64.77c1.69.15,2.76,1.23,2.76,2.76,0,.46,0,.92-.15,1.23Z"/>
          <path class="cls-4" d="M664.38,580.22c-2.46,13.98-16.74,32.1-39.01,32.1-26.72,0-46.69-15.51-46.69-44.23s16.28-49.76,39.77-49.76c29.33,0,39.47,22.88,39.47,47.91,0,4.76-2.46,5.84-4.91,5.84,0,.15-2.61.46-43.77,1.38,1.84,9.83,8.29,13.21,14.28,13.21,5.37,0,10.29-2.76,11.21-6.14.31-1.38,1.38-2.15,3.38-2.15,16.12-.31,23.65-.77,23.96-.77h-.15.15c1.54,0,2.3.77,2.3,2v.61ZM619.23,547.05c-4.76,0-8.45,2.92-9.67,9.98,6.45-.31,15.36-.77,15.97-.77.46,0,.61-.15.61-.77,0-4.45-2.15-8.45-6.91-8.45Z"/>
          <path class="cls-4" d="M730.72,520.79c0,3.22-1.07,23.34-1.23,27.03,0,.77-.61,1.23-1.54,1.38-16.43.46-23.34,10.9-23.19,29.79,0,0,.15,12.13.15,27.8,0,1.38-1.08,2.46-2.46,2.46l-26.11.61h-.15c-1.23,0-2.3-.92-2.3-2.3l-2.76-83.39v-.15c0-1.23.92-2.15,2.15-2.15h.15l26.41,1.23c2,0,2.46.46,2.46,2.15v3.69c0,.31,0,.61.15.61,0,0,.15-.15.31-.46,5.37-7.52,15.51-9.98,22.42-9.98,1.69,0,3.07.15,4.3.31.46.15,1.23.46,1.23,1.23v.15Z"/>
          <path class="cls-4" d="M831.15,610.32c-.15.92-.92,1.54-2,1.54h-.15l-30.87-2.15c-.77,0-1.23-.61-1.23-1.23v-.15c.77-5.22.92-12.29.92-24.42,0-27.8-1.07-37.93-11.21-37.93-7.83,0-11.36,5.07-11.21,17.81l.15,43.46c0,1.23-.92,2.3-2.15,2.3l-28.72-.77c-1.23,0-2.3-1.08-2.3-2.3l-2.15-85.69v-.15c0-1.23.92-2.15,2.15-2.15l30.56.46c1.23.15,2.15,1.07,2.3,2.46v4.76c5.22-2.61,11.67-4.3,19.66-4.3,22.73,0,37.32,10.44,37.32,54.67,0,18.74-.46,29.49-1.07,33.79Z"/>
          <path class="cls-4" d="M886.27,612.32c-23.19,0-45.46-16.13-45.46-45.92s16.43-47.76,43-47.76c24.57,0,42.39,16.12,42.39,47.76,0,29.02-16.74,45.92-39.93,45.92ZM883.2,552.73c-7.68,0-11.67,6.3-11.67,14.44s5.53,13.21,12.13,13.21,11.06-5.68,11.06-14.13c0-7.99-5.22-13.51-11.52-13.51Z"/>
          <polygon class="cls-4" points="923.79 501.02 390.47 507.25 390.47 488.43 924.53 488.43 923.79 501.02"/>
          <path class="cls-4" d="M165.52,348.83l-38.1-2.74h-.17c-1.53-.07-2.77,1.34-2.83,2.97-1.1,33.03-4.43,203.88-4.43,203.88,0,.18-.01.36-.03.73-.54,13.97-7.6,20.97-15.91,20.65-4.69-.18-9.87-2.73-14.47-7.55-2.51-2.91-5.26-5.73-8-8.54-2.17-2.23-5.96-.83-6.16,2.27l-1.91,28.6c-.19,2.82-.37,5.67.2,8.44.2.95.54,1.88.94,2.78.1.5.29.99.66,1.42.09.1.2.18.29.27.68.98,1.48,1.86,2.5,2.49.11.07.24.1.36.17,8.7,7.49,19.55,11.39,30.42,11.81,22.89.88,45.87-13.68,48.15-42.12l11.26-222.33c.06-1.63-1.24-2.96-2.76-3.2Z"/>
          <path class="cls-8" d="M265.65,609.62c-6.4-6.4-7.41-14.26-7.4-18.72l4.48-51.46c.4-4.64-3.03-8.72-7.67-9.13l-67.15-5.85c-4.64-.4-8.72,3.03-9.13,7.66l-5.58,64.11c-.4,4.64,3.03,8.72,7.67,9.13l61.19,5.33c3.56,1.14,7.71,2.2,12.46,2.9,7.07,1.04,13.26.97,18.12.56,0,0-5.99-3.53-6.99-4.53Z"/>
          <circle class="cls-2" cx="218.32" cy="566.86" r="7.34"/>
          <circle class="cls-2" cx="193.64" cy="585.07" r="7.34"/>
          <circle class="cls-2" cx="243.01" cy="548.65" r="7.34"/>
          <g>
            <path class="cls-4" d="M387.5,549.08l-1.65-13.31c-.13-1.51-.5-2.39-.5-2.39l-19.02,3.74c-.72.11-1.44.22-2.17.33,0,.03.01.06.02.09l-15.42,3.03-15.15,2.98-3.86.76s1.48,9.92,8.34,15.74c4.01,3.41,9.87,5.4,18.36,3.18,2.12-.56,4.4-1.38,6.86-2.51-3.57,10.63-11.48,18.72-21.87,20.79-16.75,3.34-33.57-10.23-37.57-30.31-4-20.08,6.34-39.06,23.09-42.39,14.3-2.85,28.65,6.63,35.03,21.95,6.07-2.76,12.13-5.53,18.2-8.29,2.26-.49,1.78-4.16,1.2-6.87-.23-1.05-.42-1.96-.55-2.56-4.25-19.71-30.24-35.85-55.83-30.33-31.6,6.81-53.08,40.89-45.49,76.1,7.56,35.06,33.42,56.42,70.29,48.48,27.24-5.87,41.25-29.99,37.7-58.2Z"/>
            <circle class="cls-4" cx="332.61" cy="527.52" r="5.16"/>
          </g>
          <path class="cls-5" d="M901.26,394.96c1.42,2.04,2.53,4.31,4.2,6.16,1.66,1.85,4.07,3.28,6.54,2.94.43-5.74-2.21-11.41-6.17-15.58-3.96-4.17-9.14-6.99-14.47-9.16-3.15-1.28-6.63-2.37-9.89-1.4-3,.89-5.05,3.83-4.49,6.88,9.25-.91,18.61,1.97,24.29,10.16Z"/>
          <path class="cls-5" d="M910.41,410.96c-.91-1.5,1.07-3.45,2.77-3.05s2.72,2.2,3.04,3.92c.3,1.61.13,3.37-.81,4.7-.95,1.33-2.8,2.08-4.3,1.44-1.5-.64-2.19-2.84-1.09-4.04"/>
          <path class="cls-5" d="M816.24,350.59c2.69.77,5.28,2.27,6.83,4.6,1.28,1.94,1.3,3.32,2.2,8.73.28,1.71.68,3.92,1.21,6.53.14.68,2.51.58,2.59-.11.76-6.38.4-11.35.5-14.21.1-2.99.68-8.78-.33-9.16l-1.75-.84c-3.99-.33-10.32.42-13.86.88-1.51.2-3.42.43-4.7,1.4-.39.3-.36.93.09,1.12,1.82.8,5.53.56,7.22,1.04Z"/>
          <path class="cls-5" d="M723.02,380.43c1.52-.04,3.16-.05,4.4.83,1.64,1.17,1.99,3.45,2.19,5.47.48,4.74.89,9.84-1,14.11-.25.57-1.07.53-1.24-.07l-2.62-9.09c-.21-.72-.46-1.43-.8-2.1-3.2-6.23-8.92-3.18-13.84-3.43-1.24-.06-2.46-.46-3.38-1.31-2.51-2.31.8-4.33,3.25-4.2,4.32.23,8.7-.09,13.04-.22Z"/>
          <path class="cls-5" d="M725.88,404.75c.52-.84.52-.96,1.21-1.15.59-.16,1.24.18,1.58.69s.45,1.14.49,1.75c.05.75,0,1.53-.34,2.2s-1.04,1.2-1.79,1.14c-.94-.07-1.62-1.02-1.71-1.95s.23-1.8.56-2.68"/>
          <path class="cls-5" d="M609.91,355.84c2.31,1.58,3.7,4.4,3.56,7.19-.06,1.12-.35,2.27-.05,3.36s1.53,2.03,2.52,1.51c.83-.44.97-1.55,1.01-2.48.14-3.59.28-7.18.42-10.77.06-1.52.05-3.24-1.01-4.33-1.06-1.09-2.77-1.14-4.29-1.13-2.2.03-9.28-1.24-9.38,1.65-.08,2.12,5.59,5,7.22,5Z"/>
          <path class="cls-5" d="M551.29,402.23c.52,1.31.99,2.71,1.98,3.71.99,1.01,2.71,1.47,3.82.61,1.34-1.04,1-3.13.4-4.73-2.17-5.85-6.87-12.6-13.76-16.85-7.71-4.75-14.73-5.19-16.66-5.26-1.6-.06-2.95.01-3.9.1.5.36,1.26.88,2.22,1.43,2.09,1.19,3.83,1.76,4.41,1.96,2.11.71,6.76,2.53,9.52,4.16,4.76,2.81,9.83,9.47,11.97,14.86Z"/>
          <path class="cls-5" d="M555.13,411.91c.57-.57,2.98-.84,4.13.89.71,1.33,1.44,2.73,1.48,4.24.04,1.51-.83,3.16-2.3,3.48-1.66.36-3.22-1.07-3.84-2.65-.76-1.95-.54-4.25.57-6.02"/>
          <path class="cls-5" d="M501.83,383.32c.48.28,1.57.94,2.49.54.96-.41,1.27-1.78,1.38-2.32.06-.26.37-1.67-.13-2.67-.68-1.37-2.62-1.46-8.75-1.82-5.88-.34-8.09-.49-8.37.36-.09.28.04.62.53,1.21,3.12,3.71,7.83,1.85,12.84,4.7Z"/>
          <path class="cls-5" d="M421.18,383.67c5.89,2.49,6.72.74,11.78,2.64,5.02,1.88,9.18,5.94,11.19,10.91.78,1.93,1.26,4.02,2.43,5.74,1.06,1.58,3.63,3.21,5.29,2.46,1.13-.51,1.48-1.98,1.65-2.73.48-2.14.34-5.23-2.56-10.03-3.89-6.42-9.09-9.91-10.53-10.83-6-3.84-11.47-4.72-16.25-5.48-2.5-.4-4.84-.28-9.51-.04-1.45.08-2.13.15-2.3.56-.51,1.26,4.07,4.79,8.81,6.79Z"/>
          <path class="cls-5" d="M450.17,410.03c-.14,2.1-.26,4.32.69,6.2.88,1.73,3.59,3,5.23,2.13,1.91-1.01,1.47-4.5,1.38-5.25-.12-.97-.33-2.63-1.72-3.79-.32-.27-2.14-1.55-3.97-.85-1.24.48-1.61,1.56-1.61,1.56"/>
          <path class="cls-5" d="M457.09,442.99c.26.93.27,1.93.52,2.86.21.76.88,1.95,1.82,2.09,1.3.19,2.45-1.72,2.7-2.13.08-.13.36-.61.67-1.61.31-1,.9-3.01.43-5.48-.25-1.35-.38-2.02-.86-2.55-1.13-1.24-2.58-.47-8.15-.47-2.4,0-4.25-.14-4.59.7-.09.23-.07.51.11.91,1.11,2.45,6.24,1.76,7.34,5.67Z"/>
          <path class="cls-5" d="M349.98,382.31c4.19.02,8.5.06,12.36,1.69,3.86,1.62,7.19,5.24,7.16,9.43,0,.75-.12,1.51.1,2.23.22.71.92,1.36,1.65,1.2.66-.14,1.02-.83,1.3-1.45,1.3-2.91,2.61-5.81,3.91-8.72.94-2.09,1.84-4.67.5-6.53-1.2-1.67-3.58-1.84-5.64-1.86-5.35-.04-10.7-.07-16.05-.11-1.11,0-6.53-.74-7.21.14-.63.82.96,3.98,1.93,3.98Z"/>
          <path class="cls-5" d="M253.1,382.95c2.21-.28,4.35-1.16,6.58-1.13,4.55.05,8.57,4.49,8.16,9.02-.11,1.17-.46,2.33-.26,3.49s1.25,2.3,2.39,2.03c.96-.23,1.48-1.51,1.81-2.41.57-1.56.51-2.89.49-3.69-.18-6.16.93-7.08-.31-8.93-.93-1.39-2.32-2.01-2.9-2.26-1.77-.79-3.3-.6-4.78-.56-4.45.11-8.9.23-13.35.34-6.34.16-2.19,4.67,2.17,4.1Z"/>
          <path class="cls-5" d="M265.33,402.49c-1.07,2.59-.46,3.78-.63,6.58-.09,1.39.14,3.1,1.42,3.65.88.38,1.94,0,2.62-.68.68-.67,1.07-1.58,1.45-2.46.67-1.59,1.36-3.23,1.37-4.95.01-1.73-.81-3.58-2.39-4.25s-3.81.4-3.84,2.12"/>
          <path class="cls-1" d="M863.34,456.99c11.19,7.93,25.3,11.61,38.94,10.16-7.82,3.43-16.61,4.62-25.06,3.39-7.06-1.03-13.88-3.73-19.63-7.94-10.32-7.56-20.78-25.13-16.7-38.38,5.13,13.12,10.54,24.33,22.46,32.78Z"/>
          <path class="cls-1" d="M753.41,442.67c4.87,6.88,11.04,13.03,18.63,16.69,7.59,3.66,16.71,4.62,24.5,1.4-4.33,2.84-9.26,4.76-14.37,5.6-11.94,1.95-24.75-2.39-32.96-11.27-5.02-5.44-8.2-12.49-9.19-19.81-.43-3.17-1.07-8.19.24-11.23,1.93-4.45,4.56,3.89,5.52,5.76,2.28,4.43,4.75,8.79,7.63,12.86Z"/>
          <path class="cls-5" d="M826.42,374.14c-.83,1.33-1.33,2.86-1.42,4.42-.04.7.03,1.48.56,1.93.53.46,1.38.39,1.97,0s.98-1.01,1.29-1.64c.42-.87.74-1.81.71-2.77s-.47-1.95-1.29-2.46-2.02-.4-2.61.37"/>
          <path class="cls-1" d="M656.79,452.26c9.3,10.17,23.68,16.24,37.17,13.41-7.12,2.38-14.73,3.53-22.17,2.58s-14.71-4.07-20.02-9.37c-5.32-5.31-8.44-12.52-9.94-19.89-.92-4.52-2.16-10.59-1.38-15.2.29-1.72.85-2.84,2.06-1.14,1.01,1.43,1.14,4.81,1.66,6.54,2.55,8.45,6.65,16.52,12.64,23.06Z"/>
          <path class="cls-1" d="M589.73,458.48c4.86,5.79,12.59,9.04,20.13,8.45.76-.06,1.66-.1,2.14.49.56.68.12,1.78-.64,2.22-.76.44-1.69.4-2.56.36-6.63-.35-13.25-.71-19.88-1.06-2.24-.12-4.76-.37-6.18-2.12-1.04-1.28-1.2-3.04-1.28-4.68-.11-2.39.07-21.46,1.93-20.84,1.38.46,1.35,7.14,1.79,8.65.92,3.12,2.45,6.05,4.54,8.55Z"/>
          <path class="cls-5" d="M309.18,383c1.63.02,3.34.05,4.74.87,1.64.95,2.58,2.84,2.84,4.72s-.03,3.79-.34,5.67c-2.26-4.28-7.26-6.4-12.05-7.07-2.23-.31-18.43.04-16.26-3.35,2.02-3.15,17.75-.87,21.06-.84Z"/>
          <path class="cls-1" d="M473.52,450.11c1.31,7.24,5.31,14.67,12.25,17.1-3.84-2.43-9.78,1.01-13.13-2.08-1.73-1.6-1.87-4.24-1.89-6.6-.03-3.82-2.28-23.86,1.44-24.95,1.65,4.81.35,11.33,1.33,16.52Z"/>
          <path class="cls-1" d="M532.42,456.91c2.75,4.96,7.21,8.95,12.43,11.14.75.31,1.65.82,1.56,1.62-.1.89-1.3,1.1-2.2,1.07-5.28-.19-10.56-.38-15.84-.57-1.55-.06-3.24-.17-4.36-1.23-1.56-1.46-1.31-3.97-.94-6.08.49-2.79,1.48-18.81,3.97-19.83,1.97-.8,4.22,11.79,5.38,13.88Z"/>
          <path class="cls-1" d="M386.01,440.49c3.31,6.46,7.96,12.42,14.18,16.15,6.97,4.18,15.3,5.27,23.37,6.26,5.64.69,11.35,1.37,16.99.7,5.64-.68,11.3-2.85,15.11-7.07-2.48,7.71-9.21,13.58-16.81,16.38-7.6,2.79-15.98,2.81-23.98,1.53-11.07-1.77-21.94-6.09-30.2-13.67-8.26-7.57-13.66-18.62-13.03-29.82.17-3.11,3.35-13.18,7.62-8.45,1.68,1.86,2.2,6.99,3.08,9.4,1.07,2.93,2.26,5.81,3.68,8.59Z"/>
          <path class="cls-1" d="M320.33,461.19c5.8,4.01,12.6,6.55,19.61,7.32-10.1,3.54-21.45,7.03-31.16,2.53-6.72-3.11-11.34-9.66-13.79-16.65-2.34-6.69-3.19-14.1-3.46-21.16-.23-5.97,4.21-6.04,6.89-1.33,3.12,5.49,5.52,11.2,9.21,16.39,1.96,2.76,8.87,12.88,12.7,12.88Z"/>
          <path class="cls-1" d="M197.34,451.93c9.4,10.07,23.05,16.05,36.82,16.13-7.19,4.35-16.11,5.56-24.31,3.74-8.2-1.81-15.66-6.53-21.2-12.85-5.75-6.56-9.31-14.9-10.45-23.53-.88-6.67-1.12-18.94,3.81-24.22,1.64,1.49,1.48,4.92,1.65,7.05.32,4.03.67,7.93,1.71,11.85,2.14,8.1,6.24,15.69,11.96,21.81Z"/>
          <path class="cls-5" d="M216.8,388.45c.78,1.13.74,2.68.24,3.96-.5,1.28-1.41,2.36-2.29,3.41.3-2.63-2.13-4.86-4.67-5.61-1.98-.58-14.4-.66-8.2-3.5,3.02-1.39,12.89-1.22,14.93,1.74Z"/>
          <path class="cls-5" d="M367.98,504.92c.87,1.2,2.08,2.61,3.52,2.23.96-.26,1.54-1.31,1.57-2.3.03-1.13-.33-2.11-.82-2.84-7.57-11.31-19.72-16.16-19.72-16.16-7.56-3.02-13.74-3.38-15.04-3.45-8.64-.43-17.18,1.74-17.12,2.54.02.28,1.09.4,2.02.5,9.68,1.03,15.39.88,19.27,1.41,1.59.22,10.3,1.57,16.3,7.95,3.25,3.46,7.25,6.26,10.02,10.11Z"/>
          <path class="cls-5" d="M377.87,516.56c.19-.56.17-1.16.15-1.74-.07-1.93-.17-5.02-2.22-6.05-1.58-.79-2.12-.16-2.48,1.4-.51,2.19,3.14,10.56,4.55,6.39Z"/>
          <path class="cls-1" d="M286.9,568.64c4.36,6.01,9.63,11.28,14.88,16.54,5.62,5.63,11.36,11.34,18.38,15.06,11.89,6.31,26,6.25,39.45,6.03-8.84,6.56-20.53,8.42-31.45,7.01-10.92-1.41-21.23-5.8-31.05-10.78-4.79-2.43-9.69-5.17-12.65-9.65-2.5-3.78-3.34-8.39-4.12-12.85-1.06-6.06-2.12-12.11-3.18-18.17-.48-2.73-.94-5.53-.73-8.31.28-3.61,1.43-3.26,2.58-.27,2.12,5.52,4.38,10.56,7.89,15.39Z"/>
          <path class="cls-5" d="M462.59,546.65c.6,1.35,1.31,2.91,2.74,3.26,1.56.38,3.1-1.06,3.38-2.64.29-1.58-.33-3.17-1.03-4.61-5.4-11.16-16.86-19.14-29.19-20.34-2.05-.2-6.13.28-5.74,3.24.42,3.22,5.01,1.97,7.12,2.45,6.3,1.44,12.16,4.93,16.61,9.59,2.52,2.65,4.62,5.7,6.11,9.05Z"/>
          <path class="cls-5" d="M466.25,554.89c-.42,1.43-.85,2.94-.53,4.4s1.67,2.81,3.15,2.57c1.37-.22,2.22-1.63,2.53-2.98.28-1.21.27-2.53-.28-3.64-.55-1.11-1.71-1.97-2.95-1.92-1.24.05-2.41,1.17-2.29,2.41"/>
          <path class="cls-1" d="M416.61,599.36c12.08,9.08,28.56,11.97,43.01,7.54-8.09,6.16-18.38,9.37-28.54,8.9-10.16-.47-20.11-4.61-27.6-11.49-3.73-3.42-6.87-7.53-8.91-12.16-2.25-5.1-3.08-10.68-3.15-16.23-.03-2.17-.23-14.13,2.15-13.69,2.44.46,4.08,10.41,4.96,12.61,1.82,4.53,4.11,8.88,6.91,12.88,3.1,4.42,6.84,8.4,11.16,11.64Z"/>
          <path class="cls-5" d="M564.52,526.2c2.35.56,4.68,2.52,4.46,4.93-.11,1.18-.81,2.21-1.26,3.3s-.62,2.49.19,3.35c.86.92,2.44.74,3.43-.04.99-.78,1.52-1.98,2.02-3.13.7-1.63,1.41-3.28,1.65-5.04s-.05-3.66-1.18-5.04c-1.59-1.95-4.36-2.36-6.86-2.64-2.92-.32-5.85-.64-8.77-.97-2-.22-7.37-.19-4.8,3.29,2.12,2.87,8.13,1.27,11.13,1.98Z"/>
          <path class="cls-5" d="M501.85,527.44c1.66-.09,3.32-.25,4.97-.02,1.64.22,3.3.88,4.36,2.15.62.75,1.11,1.74,2.06,1.97,1.05.25,2.12-.75,2.18-1.83.06-1.08-.66-2.09-1.57-2.67s-2-.81-3.06-1.02c-3.37-.66-6.77-1.16-10.19-1.5-2.51-.25-7.88-1.56-10.21-.53-2.3,1.01-.05,2.61,1.62,3.06,3,.82,6.78.55,9.85.39Z"/>
          <path class="cls-5" d="M512.03,534.37c-.23.97.47,1.96,1.04,2.75s1.78,1.07,2.64.59c1.27-.7,1.35-2.76.24-3.7-1.1-.94-2.94-.7-3.93.36"/>
          <path class="cls-1" d="M509.42,592.86c8.35,9.7,20.49,16.04,33.22,17.34-9.08,1.23-18.22,2.03-27.38,2.4-3.16.13-6.51.15-9.23-1.46-3.12-1.84-4.72-5.41-5.99-8.81-3.39-9.03-5.81-18.43-7.2-27.97-.27-1.83-1.13-8.64,2.97-5.31,1.33,1.08,1.89,3.92,2.58,5.46.9,2.03,1.85,4.03,2.88,6,2.28,4.38,4.94,8.59,8.17,12.34Z"/>
          <path class="cls-5" d="M627.59,529.34c6.62,2.06,12.28,7,15.23,13.27.48,1.02.91,2.1,1.72,2.89s2.13,1.19,3.08.58c1.3-.84,1.06-2.79.54-4.25-2.18-6.23-6.55-11.59-12.02-15.24-2.45-1.63-12.46-7.39-15.16-3.63-2.51,3.5,4.62,5.75,6.61,6.37Z"/>
          <path class="cls-5" d="M645.03,549.5c-.09.88-.17,1.77.04,2.63.2.86.73,1.68,1.53,2.04,1.32.59,3.01-.43,3.28-1.85.28-1.42-.72-2.9-2.08-3.38-1.36-.47-1.69-.41-2.77.55"/>
          <path class="cls-1" d="M608.59,603.85c12.2,6.51,27.65,8.27,39.76,1.59-9.38,6.75-20.65,10.84-32.17,11.68-5.66.41-11.45.05-16.81-1.82-9.28-3.22-16.68-10.85-20.73-19.8-4.05-8.95-4.94-19.12-3.73-28.87.14-1.1.54-4.9,1.99-5.21,1.8-.39,2.23,2.84,2.53,4.02.99,3.92,2.2,7.72,3.9,11.4,3.36,7.25,8.19,13.81,14.12,19.16,3.38,3.05,7.12,5.7,11.14,7.84Z"/>
          <path class="cls-5" d="M723.31,520.85c1.59-.16,3.35-.19,4.6.81,1.08.87,1.51,2.37,1.36,3.75-.15,1.38-.8,2.65-1.56,3.81.48-1.51-.08-3.29-1.34-4.26-.97-.74-2.23-.99-3.44-1.09-5.05-.42-9.33,1.46-13.32,4.33-1.2-6.38,9.78-6.96,13.71-7.35Z"/>
          <path class="cls-5" d="M693.44,524.73c1.97.31,3.94,1.41,4.75,3.24.31.69.51,1.54,1.2,1.87.88.42,1.95-.46,2.03-1.43s-.54-1.87-1.26-2.52c-1.38-1.25-3.21-1.91-5.05-2.18-2.04-.3-5.68-.76-7.46.42,1.32,1.25,4.08.33,5.79.6Z"/>
          <path class="cls-1" d="M674.26,587.3c1.27,5.79,3.89,11.46,8.34,15.38,5.24,4.61,12.46,6.34,19.43,6.62-7.64,1.62-15.4,2.68-23.2,3.16-2.24.14-4.72.16-6.45-1.27-1.99-1.65-2.23-4.58-2.27-7.17-.08-5.72.07-11.44.44-17.14.16-2.36.03-14.31,2.34-14.8.54,5.1.25,10.16,1.36,15.23Z"/>
          <path class="cls-5" d="M810.93,535.1c4.56,5.1,7.38,11.48,10.31,17.66.61,1.29,1.86,2.83,3.15,2.19.76-.38,1-1.34,1.1-2.19.99-7.99-1.84-16.37-7.48-22.12-5.34-5.44-13.14-8.46-20.75-8-1.45.09-7.63,1.16-5.65,3.71,1.09,1.4,6.25.96,7.9,1.39,4.42,1.14,8.4,3.99,11.42,7.35Z"/>
          <path class="cls-5" d="M821.91,559.64c-.3,1.09.08,2.18.3,2.58.53,1,1.14,1.93,2.23,2.25,1.15.34,2.46-.38,2.96-1.47.5-1.09.26-2.43-.41-3.43-.6-.88-1.57-1.56-2.63-1.6s-2.17.64-2.44,1.67"/>
          <path class="cls-5" d="M770.49,526.25c.82.72,1.79,1.56,2.85,1.3,1.19-.29,1.6-1.91,1.08-3.02s-1.65-1.77-2.75-2.32c-3.66-1.83-7.66-2.99-11.74-3.39-.89-.09-1.81-.14-2.67.12-.57.17-1.02.43-1.31.93,1.39,1.35,5.75,1.36,7.76,2.17,2.47,1.01,4.78,2.43,6.78,4.2Z"/>
          <path class="cls-1" d="M741.44,562.51c-.19,6.21-.38,12.46.41,18.62s2.6,12.3,6.12,17.43c4.27,6.23,11.03,10.72,18.43,12.23-6.96.88-14,1.13-21,.73-3.6-.2-7.67-.85-9.66-3.85-1.29-1.94-1.38-4.41-1.32-6.74.26-9.95,2.47-19.85,6.47-28.97"/>
          <path class="cls-1" d="M804.26,602.2c4.22,4.76,10.14,7.99,16.43,8.95-6.55,1.19-13.2,1.79-19.86,1.77-2.9,0-6.27-.38-7.84-2.83-1.09-1.71-.93-3.9-.67-5.91.25-1.89,3.03-18.47,4.98-17.67.61.25,1.73,6.92,2.15,7.95,1.16,2.82,2.79,5.46,4.82,7.75Z"/>
          <path class="cls-5" d="M903.01,536.55c5.81,5.31,9.5,12.88,10.12,20.72.18,2.34.6,5.36,2.9,5.87,1.44.32,2.92-.71,3.57-2.04.65-1.33.64-2.88.54-4.35-.59-8.21-4.01-16.18-9.55-22.27-5.54-6.09-13.16-10.24-21.27-11.61-2.03-.34-8.42-.81-8.91,2.41-.32,2.1,3.35,2.68,4.8,3.04,6.65,1.68,12.61,3.47,17.8,8.22Z"/>
          <path class="cls-5" d="M915.66,579.48c1.29-.42,1.96-1.73,2.42-3.05.08-.25.16-.49.23-.73.33-1.11.65-2.24.66-3.39.03-4.76-4.27-4.5-6.23-1.27-1.41,2.33-2.04,10.04,2.92,8.44Z"/>
          <path class="cls-1" d="M846.57,580.33c3.85,6.11,9.23,11.13,15.04,15.41,6.54,4.82,13.76,8.81,21.54,11.13,7.78,2.32,16.16,2.92,24.07,1.08-10.68,5.58-22.91,8.15-34.94,7.35-4.26-.29-8.53-1-12.49-2.61-9.55-3.88-16.48-12.84-19.44-22.7-1.35-4.49-1.95-9.17-1.96-13.85-.01-4.02-.16-9.71,1.55-13.37,1.94.75,1.84,6.45,2.41,8.35.97,3.25,2.42,6.35,4.22,9.21Z"/>
          <path class="cls-5" d="M336.05,524.92c.32.47.54,1.03.52,1.6,0,.2-.08.44-.27.49-.24.07-.43-.19-.56-.39-.71-1.12-1.92-1.91-3.23-2.1-.63-.09-1.47-.32-1.05-1.13.26-.5.69-.5,1.19-.44,1.35.17,2.63.83,3.4,1.98Z"/>
          <path class="cls-1" d="M327.52,525.66c-.08,2.09,1.02,4.18,2.78,5.31,1.76,1.13,4.12,1.24,5.99.29-.98.94-2.02,1.86-3.28,2.36-1.26.5-2.78.52-3.88-.27-.78-.56-1.25-1.45-1.57-2.35-.57-1.66-.67-3.47-.29-5.18.04.2.08.41.12.61"/>
          <path class="cls-5" d="M381.01,548.23c.84,3.27,1.22,6.67,2.39,9.84.39,1.06,1.17,2.26,2.29,2.13.7-.09,1.24-.72,1.42-1.4.18-.68.09-1.41-.02-2.1-.85-5.41-2.41-10.72-4.63-15.73-.45-1.01-.94-2.04-1.73-2.82s-1.94-1.28-3.02-1.01c-3.2.79-.71,3.15.26,4.39,1.53,1.94,2.42,4.34,3.03,6.71Z"/>
          <path class="cls-1" d="M80.09,587.83c10.14,15.91,28.55,26.22,47.42,26.52-8.57,3.87-18.02,5.77-27.42,5.52-7.27-.2-14.65-1.73-20.81-5.59-6.75-4.22-11.72-11.19-13.52-18.95-1.28-5.53-1.66-18.66,3.65-22.64,2.69-2.02,4.52.33,5.54,2.82,1.73,4.25,2.6,8.32,5.14,12.31Z"/>
          <path class="cls-5" d="M156.25,358.71c2.87,2.43,4.37,6.38,3.84,10.1-.21,1.48-.72,2.93-.73,4.43,0,1.5.67,3.15,2.07,3.67,1.51.56,3.23-.46,4.01-1.87s.86-3.08.92-4.69c.19-5.17.23-10.81-2.93-14.9-1.99-2.57-5.04-4.17-8.21-4.89-3.17-.72-6.46-.64-9.7-.34-4.17.38-5.18,3.51-1.01,4.74,4.17,1.23,8.14.69,11.73,3.73Z"/>
          <path class="cls-5" d="M157.8,403.71c-.13,1.24-.26,2.51.02,3.72.29,1.21,1.08,2.38,2.26,2.78,3.47-4.3,5.04-10.08,4.22-15.55-.44-2.9-2.63-5.52-4.86-2.54-1.86,2.48-1.32,8.6-1.64,11.59Z"/>
          <path class="cls-1" d="M419.29,503.14c26.42.66,52.83,1.32,79.25,1.98-7.2,5.16-16.69,5.44-25.55,5.53-25.32.25-50.65.49-75.97.74-2.75.03-5.71,0-7.95-1.6-2.46-1.76-3.43-5.1-2.98-8.09.34-2.27,1.67-6.87,4.42-6.67,2,.14,5.53,4.01,7.63,4.89,6.62,2.77,14.06,3.05,21.14,3.23Z"/>
          <path class="cls-5" d="M917.08,495.67c1.11.06,2.41.04,3.07-.85.71-.95.18-2.41-.79-3.1s-2.21-.81-3.4-.91c-13.79-1.12-27.64-1.5-41.47-1.17-1.85.05-6.25-.76-7.09,1.5-1.02,2.73,4.01,1.89,5.63,1.98,7.02.4,14.03.81,21.05,1.21,7.67.44,15.33.88,23,1.33Z"/>
        </g>
      </g>
    </g>
  </g>
</svg>