<?xml version="1.0" encoding="UTF-8"?>
<svg id="Camada_2" data-name="Camada 2" xmlns="http://www.w3.org/2000/svg" viewBox="0 0 25 25">
  <defs>
    <style>
      .cls-1 {
        fill: #fff;
      }
    </style>
  </defs>
  <g id="Camada_1-2" data-name="Camada 1">
    <path class="cls-1" d="M10.85,1.05h0c5.8,0,11.63,1.22,13.06,2.72.36.93-1.12,6.01-4.58,11.39-2.67,4.15-5.41,6.63-7.34,6.63-.43,0-.82-.13-1.19-.38-.7-.49-1.35-.72-1.97-.72h0c-1.03,0-1.76.63-2.46,1.23-.77.66-1.68,1.45-3.34,1.82.05-.14.11-.29.16-.44.45-1.29.72-2.72.78-4.25.03-.59.02-1.15,0-1.7v-.32s0-.29,0-.29l-.15-.24C.88,11.64.6,3.46,1.59,2.71c1.7-1.05,5.08-1.66,9.26-1.66M10.85,0C6.87,0,3.08.55,1.04,1.81-.95,3.04.04,12.3,2.92,17.04c0,.64.03,1.29,0,1.95-.06,1.34-.28,2.67-.73,3.95-.13.37-.27.72-.43,1.06-.06.14-.37.98-.52.99,5.15-.12,5.85-3.26,7.58-3.26.39,0,.82.16,1.38.54.57.39,1.17.57,1.79.57,6.2,0,14.65-17.61,12.73-19.74C23,1.2,16.72,0,10.85,0h0Z"/>
  </g>
</svg>