<?xml version="1.0" encoding="UTF-8"?>
<svg id="Camada_2" data-name="Camada 2" xmlns="http://www.w3.org/2000/svg" viewBox="0 0 25.05 25">
  <defs>
    <style>
      .cls-1 {
        fill: #fff;
      }
    </style>
  </defs>
  <g id="Camada_1-2" data-name="Camada 1">
    <path class="cls-1" d="M25.05,19.51v.99c0,1.38-1.12,2.49-2.49,2.49H7.27s-.06,0-.08.03c-.64.47-2.07,1.06-5.65,1.98-.14.04-.26-.14-.16-.24.61-.67.78-1.2.77-1.65,0-.07-.06-.12-.13-.13-1.11-.18-1.97-1.15-1.97-2.31v-1.14c0-1.38,1.12-2.49,2.49-2.49h20.02c1.38,0,2.49,1.12,2.49,2.49Z"/>
    <rect class="cls-1" y="8.49" width="25" height="5.97" rx="2.34" ry="2.34"/>
    <rect class="cls-1" x=".05" y="0" width="25" height="5.97" rx="2.34" ry="2.34"/>
  </g>
</svg>