<?xml version="1.0" encoding="UTF-8"?>
<svg id="Camada_2" data-name="Camada 2" xmlns="http://www.w3.org/2000/svg" viewBox="0 0 24.95 24.2">
  <defs>
    <style>
      .cls-1 {
        fill: #fff;
      }

      .cls-2 {
        fill: none;
        stroke: #fff;
        stroke-miterlimit: 10;
        stroke-width: 1.01px;
      }
    </style>
  </defs>
  <g id="Camada_1-2" data-name="Camada 1">
    <path class="cls-1" d="M20.97,1.37c-1.08-1.13-2.59-1.61-3.95-1.26C10.23,1.86,4.65,3.91,2.14,6.73c-.66.74-.98,1.8-.9,2.88.21,2.88,1.2,5.32,2.78,7.44.27.36.39.8.31,1.24-.17.95-.61,2.53-.99,3.68-.11.34.21.67.56.57,1.97-.63,3.85-1.55,5.56-2.72.63-.43,1.31-.79,2.04-1.02,5.06-1.58,9.61-3.23,11.84-5.15.92-.79,1.4-2.04,1.31-3.37-.25-3.5-1.38-6.52-3.68-8.9ZM17.03,9.11c-.83,1.4-1.85,2.62-3.13,3.6-.68.52-1.7.35-2.16-.38-1.01-1.62-1.48-3.32-1.57-5.09-.02-.58.41-1.09.99-1.14,1.73-.17,3.48.06,5.23.9.78.37,1.07,1.37.63,2.11Z"/>
    <path class="cls-2" d="M18.87,4.25c.65.22,1.28.6,1.8,1.14,2.35,2.39,3.52,5.4,3.76,8.9.09,1.33-.4,2.58-1.34,3.38-2.62,2.21-8.42,4.06-14.52,5.87-1.5.44-3.18-.1-4.32-1.38-2.12-2.36-3.48-5.14-3.73-8.53-.08-1.08.24-2.14.92-2.88,1.09-1.21,2.76-2.27,4.85-3.23"/>
  </g>
</svg>